<svg xmlns="http://www.w3.org/2000/svg" viewBox="0 0 144.94 104.56"><defs><style>.cls-1{fill:#026581;}</style></defs><g id="Capa_2" data-name="Capa 2"><g id="Capa_1-2" data-name="Capa 1"><path class="cls-1" d="M144.94,71.52c0,21.74-19.46,33-33,33S77.5,91.45,77.5,67c0-37.34,29.87-64.27,51.15-67,1.58,2.72,3.62,6.79,3.62,6.79-9.51,3.85-35.76,21.73-37.12,38,7.25-4.53,10.37-6.79,19-6.79C132.27,38,144.94,54.77,144.94,71.52Zm-77.5,0c0,21.74-19.46,33-33,33S0,91.45,0,67C0,29.65,29.87,2.72,51.15,0c1.58,2.72,3.62,6.79,3.62,6.79-9.51,3.85-35.76,21.73-37.12,38C24.89,40.28,28,38,36.66,38,54.77,38,67.44,54.77,67.44,71.52Z"/></g></g></svg>