<svg xmlns="http://www.w3.org/2000/svg" viewBox="0 0 398.57 78.38"><defs><style>.cls-1{fill:#026581;}</style></defs><g id="Capa_2" data-name="Capa 2"><g id="Capa_1-2" data-name="Capa 1"><path class="cls-1" d="M36.85,13.8a.66.66,0,0,1,.36.17.68.68,0,0,1,.18.36v1.43c0,.45-.18.62-.54.62H14.1c-.18,0-.26.09-.26.18V41.62c0,.09.09.18.27.18H28.82c.35,0,.53.18.53.63v1.69a.47.47,0,0,1-.53.54H14.1a.24.24,0,0,0-.27.26V75.34c0,.09.09.18.26.18H36.84c.36,0,.54.18.54.63v1.43c0,.44-.18.62-.54.62H6.6A6.74,6.74,0,0,1,0,71.42V14.33c0-.36.18-.54.62-.54Z"/><path class="cls-1" d="M35.32,62.59c0-.36.18-.53.45-.53a.56.56,0,0,1,.71.35C41.3,73.65,48.25,75.53,52.71,75.53c5.62,0,12.76-3.75,12.76-10.26,0-5.62-6-9.45-12.13-13.74-7.85-5-16.5-11.15-16.5-21.5,0-11.77,11.69-16.86,21.5-16.85a20.36,20.36,0,0,1,11.42,3.48c4,3.21,5.44,8,3.3,11.59l-.09.18A8.43,8.43,0,0,1,70,31.11a8.83,8.83,0,0,1-3,.71,6.76,6.76,0,0,1-5.62-3.21,6.88,6.88,0,0,1-.8-5.62,7.09,7.09,0,0,1,4.46-4.55c.09,0,.09,0,.09-.09s0-.09.09-.18v-.09c-.09-.09-.09-.09-.18-.09A13.82,13.82,0,0,0,58.7,16.3c-6.06,0-9.37,4.72-9.37,10.52,0,6,6,9.46,12.4,13.74,7.85,5,16.77,10.62,16.77,21.32,0,11.42-12.14,16.5-24.18,16.5-8.74,0-15.07-4.1-18.91-12.22a.33.33,0,0,1-.09-.27Z"/><path class="cls-1" d="M127.2,21.57a7.9,7.9,0,0,1,.18,7.94l-.09.09a7.13,7.13,0,0,1-5.89,3.48,6.29,6.29,0,0,1-5.62-3.21,6.35,6.35,0,0,1-.8-5.62,7,7,0,0,1,6.6-4.91c.09,0,.18,0,.18-.09s0-.26-.09-.26a14,14,0,0,0-7.94-2.77C102.31,16.22,100,36.47,100,44.94c0,13.56,3.83,28.64,10.16,30.51,4.11,1.16,8.57-2.67,13.48-11.68a.59.59,0,0,1,.71-.27.57.57,0,0,1,.45.54V75.19a.56.56,0,0,1-.44.53,39.84,39.84,0,0,1-12,2.32C95.17,78,85.63,61.89,85.63,45.38c0-15.07,8.48-31.21,26.77-31.21C120.25,14.17,125.24,17.92,127.2,21.57Z"/><path class="cls-1" d="M132.13,14.08c0-.26.09-.35.35-.35H151c16,0,23.37,8.92,23.37,17.49,0,6.15-3.66,12.57-11.16,16.14,6.87,4.37,12.75,22.22,13.47,30.06a.43.43,0,0,1-.45.45h-9.72a6.34,6.34,0,0,1-6.25-5.53c-1.42-8.74-5.43-21.59-10.87-23.46a3.18,3.18,0,0,1-.54-.09c-.09,0-.09,0-.18-.09h-.89c-2.23,0-2.23.09-2.23,2.32V77.51c0,.27-.09.36-.36.36h-6.69a6.47,6.47,0,0,1-6.42-6.51ZM145.59,44c0,2.23.09,2.41,2.23,2.32,8.21-.45,12.76-7.76,12.76-15,0-6.86-4.19-15.25-13.38-15.25-1.69,0-1.6-.09-1.6,1.6Z"/><path class="cls-1" d="M180.74,14.36c0-.36.18-.53.62-.53h6.69a6.6,6.6,0,0,1,6.6,6.69V77.61c0,.44-.18.62-.62.62h-6.69a6.74,6.74,0,0,1-6.6-6.78ZM197.15,0,185,9.37h-3.39l5-9.37Z"/><path class="cls-1" d="M218.83,13.92q11.91.4,19,5.36c4,2.76,6.24,6.6,6.24,10.61,0,5.71-4,10.35-10.89,13.2l-.53.27a1.83,1.83,0,0,0,.44.09l.09.09c10.08,3.12,16.06,9.1,16.06,16.24,0,8.83-10.09,18.28-31.94,18.28h-8.92a6.66,6.66,0,0,1-6.6-6.69V14.54c0-.44.18-.62.62-.62Zm-1.35,61.64a16.42,16.42,0,0,0,15.61-15.87c0-6.07-4.9-14.64-15.61-14.64-.62,0-.89,0-1,.09s-.09.45-.09,1.07V74.58c0,.62,0,.89.09,1S216.94,75.65,217.48,75.56ZM216.41,41.4c0,.62,0,1,.09,1.07s.45.09,1,0c8.21-.45,11.87-7.67,11.87-12.67,0-5.26-3.74-13.2-11.86-13.2a1.79,1.79,0,0,0-1,.18c-.09.09-.09.35-.09.89Z"/><path class="cls-1" d="M293.21,13.85a.69.69,0,0,1,.35.18.66.66,0,0,1,.18.35v1.43c0,.45-.18.62-.53.62H270.46c-.18,0-.27.09-.27.18V41.67c0,.09.09.18.26.18h14.72c.36,0,.54.17.54.62v1.7a.47.47,0,0,1-.54.53H270.45a.23.23,0,0,0-.26.26V75.39c0,.09.09.18.27.18h22.74c.36,0,.54.17.54.62v1.43c0,.44-.18.62-.54.62H263a6.75,6.75,0,0,1-6.6-6.78V14.38c0-.36.18-.54.63-.54Z"/><path class="cls-1" d="M297.5,14.47c0-.35.18-.53.63-.53h8.11a6.44,6.44,0,0,1,6,3.84c3.3,7.4,10.52,23.28,15.25,34l.09.08h.09c.09,0,.09,0,.17-.08l2.06-5,13-32.47a.66.66,0,0,1,.62-.35h3.93a6.66,6.66,0,0,1,6.6,6.69V77.55a.47.47,0,0,1-.54.53H347a6.66,6.66,0,0,1-6.6-6.69V29.29a.19.19,0,0,0-.18-.18h-.09c-.09,0-.09,0-.09.09l-.72,1.69c-3.12,7.85-7.94,19.27-10.08,24.8v.18L331,59.79a.76.76,0,0,1,0,.63.52.52,0,0,1-.53.27h-8.92a6.62,6.62,0,0,1-6-3.83L300.71,24.73a.33.33,0,0,0-.27-.09.18.18,0,0,0-.17.18V77.54a.48.48,0,0,1-.54.54h-1.6c-.45,0-.63-.18-.63-.54Z"/><path class="cls-1" d="M398,13.87a.68.68,0,0,1,.36.18.66.66,0,0,1,.18.35v1.43c0,.45-.18.63-.54.63H375.29c-.18,0-.27.09-.27.18V41.7c0,.09.09.17.27.17H390c.36,0,.54.17.54.62v1.7a.47.47,0,0,1-.54.53H375.28A.24.24,0,0,0,375,45V75.41c0,.09.09.18.27.18H398c.36,0,.54.18.54.62v1.43c0,.44-.18.62-.54.62H367.78a6.75,6.75,0,0,1-6.6-6.78V14.4c0-.36.18-.54.63-.54Z"/></g></g></svg>