<svg xmlns="http://www.w3.org/2000/svg" viewBox="0 0 423.68 124.22"><defs><style>.cls-1{fill:#026581;}.cls-2{fill:#009bc5;}</style></defs><g id="Capa_2" data-name="Capa 2"><g id="Capa_1-2" data-name="Capa 1"><path class="cls-1" d="M1.38,2.35a2.11,2.11,0,0,1,.56-.83,1.35,1.35,0,0,1,.89-.27,1.68,1.68,0,0,1,.65.13A1.82,1.82,0,0,1,4,1.7c-.08.51-.18,1.1-.3,1.78s-.23,1.37-.32,2.1S3.23,7,3.13,7.76,3,9.15,3,9.75A3.94,3.94,0,0,1,1.5,10C.5,10,0,9.5,0,8.45A9.94,9.94,0,0,1,.14,7c.1-.58.21-1.17.35-1.76S.77,4.07.93,3.56A9.45,9.45,0,0,1,1.38,2.35Zm5.5,0a1.51,1.51,0,0,1,1.45-1.1A1.8,1.8,0,0,1,9,1.38a1.35,1.35,0,0,1,.52.32c-.08.51-.18,1.1-.3,1.78S9,4.85,8.92,5.58,8.73,7,8.65,7.76s-.13,1.39-.16,2a4.49,4.49,0,0,1-.73.22A4.18,4.18,0,0,1,7,10C6,10,5.54,9.5,5.54,8.45A9.94,9.94,0,0,1,5.68,7c.1-.58.21-1.17.35-1.76s.27-1.15.42-1.66A8.44,8.44,0,0,1,6.88,2.35Z"/><path class="cls-2" d="M11,26.12a1.75,1.75,0,0,1-.49-1.29V3.8A1.75,1.75,0,0,1,11,2.51,1.71,1.71,0,0,1,12.33,2H25.76a3.31,3.31,0,0,1,.24.55,2.27,2.27,0,0,1,.12.75,1.74,1.74,0,0,1-.32,1.09,1.13,1.13,0,0,1-.93.4h-11v7.81H24.5a2.29,2.29,0,0,1,.25.54,2.27,2.27,0,0,1,.12.75A1.57,1.57,0,0,1,24.54,15a1.12,1.12,0,0,1-.92.39H13.83v8.49H26a3.24,3.24,0,0,1,.24.52,2.26,2.26,0,0,1,.12.77A1.57,1.57,0,0,1,26,26.22a1.14,1.14,0,0,1-.93.39H12.33A1.71,1.71,0,0,1,11,26.12Z"/><path class="cls-2" d="M31.38,26.71a3.57,3.57,0,0,1-.89.1c-1.16,0-1.74-.49-1.74-1.46V.4a5.6,5.6,0,0,1,.63-.18,4.14,4.14,0,0,1,.87-.1C31.4.12,32,.61,32,1.58v25A6,6,0,0,1,31.38,26.71Z"/><path class="cls-2" d="M56.37,23.53A2,2,0,0,1,56,24.79a4.05,4.05,0,0,1-1.07.89,9.64,9.64,0,0,1-2.3,1,11.65,11.65,0,0,1-3.44.46,13.62,13.62,0,0,1-4-.56,8.34,8.34,0,0,1-3.14-1.76,7.91,7.91,0,0,1-2-3,12.43,12.43,0,0,1-.71-4.43,12.61,12.61,0,0,1,.73-4.51,8.58,8.58,0,0,1,2-3.09A7.39,7.39,0,0,1,44.94,8a11.05,11.05,0,0,1,3.58-.57A10,10,0,0,1,51,7.72a9.79,9.79,0,0,1,2.1.81V.4q.21-.08.63-.18a4.14,4.14,0,0,1,.87-.1c1.16,0,1.74.49,1.74,1.46ZM53.13,11.44a9,9,0,0,0-1.86-1,6.71,6.71,0,0,0-2.42-.4,7.36,7.36,0,0,0-2.37.38,5,5,0,0,0-2,1.26A6.2,6.2,0,0,0,43.16,14a10.5,10.5,0,0,0-.5,3.44q0,3.72,1.78,5.38a6.66,6.66,0,0,0,4.73,1.65,6.92,6.92,0,0,0,4-1.05Z"/><path class="cls-2" d="M59.2,2A2,2,0,0,1,59.78.59,2.07,2.07,0,0,1,61.3,0a2,2,0,0,1,2.06,2,2,2,0,0,1-.56,1.44A2,2,0,0,1,61.3,4a2.06,2.06,0,0,1-1.52-.58A2,2,0,0,1,59.2,2Zm3.72,24.51-.61.18a3.51,3.51,0,0,1-.89.1c-1.16,0-1.74-.49-1.74-1.46V8a3.64,3.64,0,0,1,.63-.18,3.78,3.78,0,0,1,.91-.11c1.13,0,1.7.5,1.7,1.5Z"/><path class="cls-2" d="M79.38,21.63a4.81,4.81,0,0,1-1.91,4.05A8.9,8.9,0,0,1,72,27.13a14.73,14.73,0,0,1-2.83-.26,9.85,9.85,0,0,1-2.2-.69,4.21,4.21,0,0,1-1.41-1A1.62,1.62,0,0,1,65,24.1a1.87,1.87,0,0,1,.26-.93,2.33,2.33,0,0,1,.79-.77,12.87,12.87,0,0,0,2.55,1.44,8.25,8.25,0,0,0,3.31.62q4.21,0,4.21-2.83c0-1.53-.93-2.53-2.79-3L70,17.75a7.36,7.36,0,0,1-3.6-1.88,4.52,4.52,0,0,1-1.13-3.17,4.86,4.86,0,0,1,.43-2A4.46,4.46,0,0,1,67,9a6.51,6.51,0,0,1,2.21-1.15A9.81,9.81,0,0,1,72.3,7.4a10.73,10.73,0,0,1,4.57.83q1.74.82,1.74,1.92a1.64,1.64,0,0,1-.27.93,1.66,1.66,0,0,1-.7.61,12.91,12.91,0,0,0-2.07-1.06,8.17,8.17,0,0,0-3.15-.56,5.28,5.28,0,0,0-2.89.69,2.15,2.15,0,0,0-1.07,1.94,2.22,2.22,0,0,0,.6,1.57,3.93,3.93,0,0,0,2,1l2.79.68A8.89,8.89,0,0,1,78,18,4.92,4.92,0,0,1,79.38,21.63Z"/><path class="cls-2" d="M83.74,19.17q1.1,5.29,7,5.29a8,8,0,0,0,3.07-.56A9,9,0,0,0,96,22.69a1.7,1.7,0,0,1,1,1.53,1.59,1.59,0,0,1-.5,1.09,4.62,4.62,0,0,1-1.38.93,9.22,9.22,0,0,1-2,.65,12.21,12.21,0,0,1-2.48.24,10.46,10.46,0,0,1-7.42-2.54Q80.38,22,80.38,17.15A11.89,11.89,0,0,1,81.05,13a8.89,8.89,0,0,1,1.86-3,8,8,0,0,1,2.85-1.92,9.49,9.49,0,0,1,3.6-.67A9,9,0,0,1,92.72,8a7.54,7.54,0,0,1,2.65,1.72,8,8,0,0,1,1.74,2.62,8.83,8.83,0,0,1,.62,3.34,1.68,1.68,0,0,1-.4,1.27,1.86,1.86,0,0,1-1.13.47ZM89.32,10a5.36,5.36,0,0,0-4.08,1.72,7.13,7.13,0,0,0-1.7,4.91l11.12-1.54a6,6,0,0,0-1.56-3.66A5,5,0,0,0,89.32,10Z"/><path class="cls-2" d="M112.73,14.44a4.06,4.06,0,0,0-1.27-3.32,5.21,5.21,0,0,0-3.42-1,9.34,9.34,0,0,0-2.87.4,10.73,10.73,0,0,0-2.14.93V26.53l-.61.18a3.51,3.51,0,0,1-.89.1c-1.16,0-1.74-.49-1.74-1.46V11.57a2.57,2.57,0,0,1,.35-1.4,3.74,3.74,0,0,1,1.19-1.07,12.06,12.06,0,0,1,2.79-1.17A13.57,13.57,0,0,1,108,7.4a9.19,9.19,0,0,1,5.81,1.66Q116,10.71,116,14.27V26.53a6.32,6.32,0,0,1-.63.18,3.57,3.57,0,0,1-.87.1c-1.16,0-1.74-.49-1.74-1.46ZM104.57.28a5.27,5.27,0,0,1,1.57.23c.49.14.94.3,1.36.46l1.19.47a3.16,3.16,0,0,0,1.09.22,1.26,1.26,0,0,0,1.07-.43,2.72,2.72,0,0,0,.51-1.11h.24a2.46,2.46,0,0,1,1.3.35,1.27,1.27,0,0,1,.56,1.19,2.26,2.26,0,0,1-.81,1.84,3.28,3.28,0,0,1-2.14.67,5.71,5.71,0,0,1-1.62-.23c-.51-.15-1-.31-1.43-.48L106.22,3a2.79,2.79,0,0,0-1-.22,1.21,1.21,0,0,0-1,.45,3,3,0,0,0-.48,1.13h-.25A2.29,2.29,0,0,1,102.1,4a1.28,1.28,0,0,1-.57-1.17A2.15,2.15,0,0,1,102.46,1,3.56,3.56,0,0,1,104.57.28Z"/><path class="cls-2" d="M136.35,17.27a12.13,12.13,0,0,1-.65,4.08,8.85,8.85,0,0,1-1.84,3.11,7.83,7.83,0,0,1-2.89,2,11,11,0,0,1-7.6,0,8.08,8.08,0,0,1-2.91-2,8.75,8.75,0,0,1-1.86-3.11,12.13,12.13,0,0,1-.65-4.08,11.74,11.74,0,0,1,.67-4.09,8.93,8.93,0,0,1,1.88-3.11,8.18,8.18,0,0,1,2.91-2,10.59,10.59,0,0,1,7.52,0,7.93,7.93,0,0,1,2.89,2,9,9,0,0,1,1.86,3.11A11.74,11.74,0,0,1,136.35,17.27Zm-9.18-7.2a5.32,5.32,0,0,0-4.33,1.9,8.07,8.07,0,0,0-1.57,5.3,8.14,8.14,0,0,0,1.55,5.31,5.32,5.32,0,0,0,4.35,1.88,5.25,5.25,0,0,0,4.33-1.9A8.21,8.21,0,0,0,133,17.27a8.18,8.18,0,0,0-1.55-5.3A5.27,5.27,0,0,0,127.17,10.07Z"/><path class="cls-2" d="M145.69,19.17q1.09,5.29,6.95,5.29a8,8,0,0,0,3.08-.56,9.25,9.25,0,0,0,2.18-1.21,1.7,1.7,0,0,1,1,1.53,1.59,1.59,0,0,1-.5,1.09,4.62,4.62,0,0,1-1.38.93,9.22,9.22,0,0,1-2,.65,12.23,12.23,0,0,1-2.49.24,10.47,10.47,0,0,1-7.42-2.54q-2.73-2.55-2.73-7.44A11.66,11.66,0,0,1,143,13a8.6,8.6,0,0,1,1.86-3,7.89,7.89,0,0,1,2.85-1.92,9.49,9.49,0,0,1,3.6-.67,9,9,0,0,1,3.36.61,7.5,7.5,0,0,1,2.64,1.72,8,8,0,0,1,1.74,2.62,8.64,8.64,0,0,1,.63,3.34,1.72,1.72,0,0,1-.4,1.27,1.87,1.87,0,0,1-1.14.47ZM151.27,10a5.36,5.36,0,0,0-4.09,1.72,7.18,7.18,0,0,0-1.69,4.91l11.12-1.54a6,6,0,0,0-1.56-3.66A5,5,0,0,0,151.27,10Z"/><path class="cls-2" d="M174.76,21.63a4.8,4.8,0,0,1-1.9,4.05,8.92,8.92,0,0,1-5.5,1.45,14.65,14.65,0,0,1-2.83-.26,9.68,9.68,0,0,1-2.2-.69,4.37,4.37,0,0,1-1.42-1,1.65,1.65,0,0,1-.5-1.11,1.77,1.77,0,0,1,.26-.93,2.33,2.33,0,0,1,.79-.77A12.87,12.87,0,0,0,164,23.84a8.25,8.25,0,0,0,3.31.62q4.22,0,4.21-2.83c0-1.53-.93-2.53-2.79-3l-3.36-.89a7.36,7.36,0,0,1-3.6-1.88,4.52,4.52,0,0,1-1.13-3.17,5,5,0,0,1,.42-2A4.49,4.49,0,0,1,162.39,9a6.55,6.55,0,0,1,2.2-1.15,9.92,9.92,0,0,1,3.1-.43,10.76,10.76,0,0,1,4.57.83c1.15.55,1.73,1.19,1.73,1.92a1.64,1.64,0,0,1-1,1.54A12.33,12.33,0,0,0,171,10.63a8.17,8.17,0,0,0-3.15-.56,5.26,5.26,0,0,0-2.89.69,2.16,2.16,0,0,0-1.08,1.94,2.22,2.22,0,0,0,.61,1.57,3.93,3.93,0,0,0,2,1l2.79.68a8.88,8.88,0,0,1,4.13,2A5,5,0,0,1,174.76,21.63Z"/><path class="cls-1" d="M189,24.38a6,6,0,0,0,4.1-1.23,4,4,0,0,0,1.4-3.17,3.65,3.65,0,0,0-1.08-2.75,8.13,8.13,0,0,0-3.37-1.74l-3.52-1.05a9.29,9.29,0,0,1-4.06-2.27,5.48,5.48,0,0,1-1.48-4,6.22,6.22,0,0,1,.59-2.77,5.72,5.72,0,0,1,1.67-2.08A8,8,0,0,1,185.9,2a11.65,11.65,0,0,1,3.42-.46,15.85,15.85,0,0,1,3,.26,10.57,10.57,0,0,1,2.43.73,5.14,5.14,0,0,1,1.59,1,1.67,1.67,0,0,1,.57,1.17,1.63,1.63,0,0,1-.28,1,2.08,2.08,0,0,1-.73.65,10.21,10.21,0,0,0-2.73-1.42,11.07,11.07,0,0,0-3.74-.6,6.09,6.09,0,0,0-3.74,1,3.33,3.33,0,0,0-1.35,2.83,3,3,0,0,0,1,2.3A8,8,0,0,0,188.55,12l2.47.73a12.56,12.56,0,0,1,5,2.61A6,6,0,0,1,197.89,20a6.5,6.5,0,0,1-2.3,5.17,9.76,9.76,0,0,1-6.55,2,15.91,15.91,0,0,1-3.38-.32,11.57,11.57,0,0,1-2.59-.85,5.68,5.68,0,0,1-1.66-1.15,1.84,1.84,0,0,1-.58-1.23,1.67,1.67,0,0,1,.42-1.16,2.6,2.6,0,0,1,1-.67,8.89,8.89,0,0,0,1.09.92,8.51,8.51,0,0,0,1.5.84,9.85,9.85,0,0,0,1.9.63A10.37,10.37,0,0,0,189,24.38Z"/><path class="cls-1" d="M203.07,26.71a3.57,3.57,0,0,1-.89.1c-1.19,0-1.78-.5-1.78-1.5V2.1a5.6,5.6,0,0,1,.63-.18,3.71,3.71,0,0,1,.9-.1q1.74,0,1.74,1.5V26.53A6,6,0,0,1,203.07,26.71Z"/><path class="cls-1" d="M221.91,20.22a3.28,3.28,0,0,1-.75.36,3.05,3.05,0,0,1-1,.16,3,3,0,0,1-1.15-.2,1.23,1.23,0,0,1-.71-.65c-1.46-3-2.71-5.78-3.76-8.28S212.61,7,212,5.38h-.16c-.08,2-.17,3.9-.26,5.64s-.2,3.44-.31,5.09-.21,3.34-.32,5-.21,3.52-.32,5.46l-.63.16a4.25,4.25,0,0,1-.83.08,1.74,1.74,0,0,1-1.25-.36,1.47,1.47,0,0,1-.37-1.06c0-.26,0-.84.07-1.73s.1-2,.18-3.24.17-2.67.26-4.2.2-3.1.32-4.69.25-3.16.37-4.69.23-2.94.34-4.21a3.57,3.57,0,0,1,.93-.53,3.73,3.73,0,0,1,1.38-.24,2.61,2.61,0,0,1,2.58,1.5c.52,1.05,1,2.16,1.56,3.33s1.05,2.37,1.58,3.58,1,2.41,1.54,3.6,1,2.32,1.43,3.4h.16c.59-1.43,1.19-2.84,1.78-4.23s1.17-2.73,1.74-4,1.1-2.51,1.62-3.64,1-2.17,1.37-3.11a2.89,2.89,0,0,1,.93-.31,5.79,5.79,0,0,1,1-.1c1.27,0,2,.43,2.19,1.3.1.48.23,1.28.36,2.4s.27,2.41.41,3.86.26,3,.38,4.69.24,3.29.34,4.84.2,3,.29,4.28.14,2.34.2,3.1a3,3,0,0,1-1.7.48,1.94,1.94,0,0,1-1.07-.3,1.46,1.46,0,0,1-.55-1.12c-.13-2-.25-3.92-.36-5.86s-.21-3.79-.31-5.54-.18-3.36-.26-4.83-.15-2.72-.2-3.74h-.16c-.3.75-.64,1.6-1,2.55s-.85,2-1.38,3.19l-1.76,4Q223.13,17.47,221.91,20.22Z"/><path class="cls-1" d="M239.74,17.83v8.7l-.64.18a3.57,3.57,0,0,1-.89.1c-1.19,0-1.78-.5-1.78-1.5V3.8a1.37,1.37,0,0,1,.32-1,2.23,2.23,0,0,1,1-.55,14.75,14.75,0,0,1,2.85-.52c1.12-.11,2.21-.16,3.26-.16q5.13,0,7.5,2.16a7.51,7.51,0,0,1,2.36,5.84,7.82,7.82,0,0,1-2.42,6q-2.43,2.23-7.48,2.24Zm3.88-2.75a8.24,8.24,0,0,0,5-1.33,4.85,4.85,0,0,0,1.78-4.13,4.69,4.69,0,0,0-1.72-4,8.14,8.14,0,0,0-4.91-1.27c-.73,0-1.45,0-2.17.1s-1.35.15-1.92.26V15.08Z"/><path class="cls-1" d="M256.83,26.12a1.69,1.69,0,0,1-.51-1.29V2.1a6.32,6.32,0,0,1,.63-.18,3.73,3.73,0,0,1,.91-.1c1.18,0,1.78.5,1.78,1.5V23.78h11.6a1.78,1.78,0,0,1,.45,1.33,1.58,1.58,0,0,1-.37,1.09,1.23,1.23,0,0,1-1,.41H258.1A1.73,1.73,0,0,1,256.83,26.12Z"/><path class="cls-1" d="M274,26.12a1.74,1.74,0,0,1-.48-1.29V3.8A1.74,1.74,0,0,1,274,2.51a1.75,1.75,0,0,1,1.3-.49h13.42a3.31,3.31,0,0,1,.24.55,2.27,2.27,0,0,1,.12.75,1.68,1.68,0,0,1-.32,1.09,1.13,1.13,0,0,1-.93.4h-11v7.81H287.5a2.84,2.84,0,0,1,.24.54,2.27,2.27,0,0,1,.12.75,1.63,1.63,0,0,1-.32,1.07,1.15,1.15,0,0,1-.93.39h-9.79v8.49H289a4.29,4.29,0,0,1,.25.52,2.26,2.26,0,0,1,.12.77,1.57,1.57,0,0,1-.33,1.07,1.12,1.12,0,0,1-.93.39H275.33A1.75,1.75,0,0,1,274,26.12Z"/><path class="cls-1" d="M292.11,30.41a2.71,2.71,0,0,1-.69.83,1.51,1.51,0,0,1-.89.26,1.81,1.81,0,0,1-1.46-.69c.19-.51.39-1.11.61-1.8l.67-2.14c.22-.74.43-1.46.6-2.16s.32-1.34.43-1.9a3.64,3.64,0,0,1,.7-.27,3.7,3.7,0,0,1,.83-.1,1.71,1.71,0,0,1,1.14.35,1.43,1.43,0,0,1,.4,1.15,6.28,6.28,0,0,1-.26,1.62c-.18.62-.39,1.24-.63,1.88s-.5,1.22-.77,1.76A12.86,12.86,0,0,1,292.11,30.41Z"/><path class="cls-2" d="M10.35,75.66a10.5,10.5,0,0,1-2.67-.33,8.65,8.65,0,0,1-2.06-.77v7.85c-.13,0-.34.11-.61.18a3.49,3.49,0,0,1-.88.1c-1.16,0-1.74-.5-1.74-1.49V59.85a2.58,2.58,0,0,1,.28-1.3,3.3,3.3,0,0,1,1.17-1,16.24,16.24,0,0,1,2.61-1.11,10.81,10.81,0,0,1,3.46-.51,12.1,12.1,0,0,1,3.74.57,7.91,7.91,0,0,1,3,1.76,8.35,8.35,0,0,1,2,3,11.87,11.87,0,0,1,.75,4.45,12.83,12.83,0,0,1-.67,4.37,8.25,8.25,0,0,1-1.88,3.09A7.61,7.61,0,0,1,14,75.05,10.81,10.81,0,0,1,10.35,75.66ZM9.91,73a6.15,6.15,0,0,0,4.55-1.72q1.71-1.72,1.71-5.52a9.75,9.75,0,0,0-.5-3.36,6,6,0,0,0-1.38-2.22,4.92,4.92,0,0,0-2-1.21,7.5,7.5,0,0,0-2.38-.37A7.14,7.14,0,0,0,7.44,59a13.43,13.43,0,0,0-1.82.8V71.69a6.63,6.63,0,0,0,1.82.93A7.34,7.34,0,0,0,9.91,73Z"/><path class="cls-2" d="M38.78,65.79a12.13,12.13,0,0,1-.65,4.08A8.81,8.81,0,0,1,36.29,73a7.93,7.93,0,0,1-2.89,2,10.81,10.81,0,0,1-7.6,0,8.18,8.18,0,0,1-2.91-2A8.7,8.7,0,0,1,21,69.87a12.13,12.13,0,0,1-.65-4.08,11.64,11.64,0,0,1,.67-4.08,9,9,0,0,1,1.88-3.12,8.18,8.18,0,0,1,2.91-2,10.59,10.59,0,0,1,7.52,0,7.93,7.93,0,0,1,2.89,2,9.09,9.09,0,0,1,1.86,3.12A11.64,11.64,0,0,1,38.78,65.79Zm-9.18-7.2a5.35,5.35,0,0,0-4.33,1.9,8.09,8.09,0,0,0-1.57,5.3,8.13,8.13,0,0,0,1.55,5.32A5.35,5.35,0,0,0,29.6,73a5.28,5.28,0,0,0,4.33-1.9,8.26,8.26,0,0,0,1.53-5.3,8.2,8.2,0,0,0-1.55-5.3A5.3,5.3,0,0,0,29.6,58.59Z"/><path class="cls-2" d="M44,75.05a6,6,0,0,1-.6.18,3.57,3.57,0,0,1-.89.1c-1.16,0-1.74-.48-1.74-1.45V60.17a2.77,2.77,0,0,1,.34-1.48,3.82,3.82,0,0,1,1.16-1.07,10.43,10.43,0,0,1,2.85-1.19,14.83,14.83,0,0,1,4.06-.51c2.16,0,3.23.54,3.23,1.62a2.27,2.27,0,0,1-.12.75,2.08,2.08,0,0,1-.32.59c-.27-.06-.62-.11-1.05-.17a11.17,11.17,0,0,0-1.29-.08,12.4,12.4,0,0,0-3.28.39,10.12,10.12,0,0,0-2.35.91Z"/><path class="cls-2" d="M60.53,67.69q1.09,5.3,7,5.3a8,8,0,0,0,3.07-.57,9,9,0,0,0,2.18-1.21,1.72,1.72,0,0,1,1,1.54,1.6,1.6,0,0,1-.5,1.09,4.62,4.62,0,0,1-1.38.93,9.23,9.23,0,0,1-2,.64,11.52,11.52,0,0,1-2.48.25,10.42,10.42,0,0,1-7.42-2.55q-2.73-2.55-2.73-7.44a11.89,11.89,0,0,1,.66-4.11,9.09,9.09,0,0,1,1.86-3.05,8.24,8.24,0,0,1,2.85-1.92,9.69,9.69,0,0,1,3.6-.67,9.17,9.17,0,0,1,3.36.61,7.68,7.68,0,0,1,2.65,1.72,8,8,0,0,1,1.74,2.63,8.77,8.77,0,0,1,.62,3.33,1.71,1.71,0,0,1-.4,1.28A1.92,1.92,0,0,1,73,66Zm5.58-9.14A5.39,5.39,0,0,0,62,60.27a7.15,7.15,0,0,0-1.7,4.91l11.12-1.53A5.92,5.92,0,0,0,69.89,60,4.93,4.93,0,0,0,66.11,58.55Z"/><path class="cls-2" d="M89.61,70.16a4.82,4.82,0,0,1-1.9,4,8.94,8.94,0,0,1-5.5,1.46,13.81,13.81,0,0,1-2.83-.27,9.8,9.8,0,0,1-2.21-.68,4.52,4.52,0,0,1-1.41-1,1.66,1.66,0,0,1-.51-1.12,1.87,1.87,0,0,1,.26-.93,2.31,2.31,0,0,1,.79-.76,13.37,13.37,0,0,0,2.55,1.43,8.26,8.26,0,0,0,3.32.63c2.8,0,4.2-.95,4.2-2.83,0-1.54-.93-2.54-2.79-3l-3.36-.89a7.35,7.35,0,0,1-3.59-1.88,4.53,4.53,0,0,1-1.14-3.18,4.89,4.89,0,0,1,.43-2,4.54,4.54,0,0,1,1.31-1.7,6.69,6.69,0,0,1,2.21-1.15,10.11,10.11,0,0,1,3.09-.43,10.73,10.73,0,0,1,4.57.83q1.74.84,1.74,1.92a1.64,1.64,0,0,1-.27.93,1.59,1.59,0,0,1-.7.61,13.9,13.9,0,0,0-2.07-1.05,8,8,0,0,0-3.15-.57,5.28,5.28,0,0,0-2.89.69,2.17,2.17,0,0,0-1.07,1.94,2.24,2.24,0,0,0,.6,1.58,4,4,0,0,0,2,1l2.79.69a8.7,8.7,0,0,1,4.12,2A4.89,4.89,0,0,1,89.61,70.16Z"/><path class="cls-2" d="M109,65.79a12.13,12.13,0,0,1-.64,4.08A9,9,0,0,1,106.53,73a8,8,0,0,1-2.89,2A10.84,10.84,0,0,1,96,75a8.18,8.18,0,0,1-2.91-2,8.7,8.7,0,0,1-1.86-3.12,12.13,12.13,0,0,1-.64-4.08,11.88,11.88,0,0,1,.66-4.08,9.13,9.13,0,0,1,1.88-3.12,8.18,8.18,0,0,1,2.91-2,10.62,10.62,0,0,1,7.53,0,8,8,0,0,1,2.89,2,9.41,9.41,0,0,1,1.86,3.12A11.88,11.88,0,0,1,109,65.79Zm-9.18-7.2a5.33,5.33,0,0,0-4.32,1.9,8.09,8.09,0,0,0-1.58,5.3,8.13,8.13,0,0,0,1.56,5.32A5.33,5.33,0,0,0,99.83,73a5.26,5.26,0,0,0,4.33-1.9,8.2,8.2,0,0,0,1.54-5.3,8.15,8.15,0,0,0-1.56-5.3A5.28,5.28,0,0,0,99.83,58.59Z"/><path class="cls-2" d="M118.35,67.69q1.09,5.3,7,5.3a7.92,7.92,0,0,0,3.07-.57,9.14,9.14,0,0,0,2.19-1.21,1.74,1.74,0,0,1,1,1.54,1.58,1.58,0,0,1-.51,1.09,4.56,4.56,0,0,1-1.37.93,9.32,9.32,0,0,1-2,.64,11.39,11.39,0,0,1-2.48.25,10.43,10.43,0,0,1-7.42-2.55Q115,70.56,115,65.67a11.66,11.66,0,0,1,.67-4.11,8.78,8.78,0,0,1,1.86-3.05,8.06,8.06,0,0,1,2.85-1.92,9.59,9.59,0,0,1,3.59-.67,9.13,9.13,0,0,1,3.36.61A7.59,7.59,0,0,1,130,58.25a8,8,0,0,1,1.74,2.63,8.59,8.59,0,0,1,.63,3.33,1.71,1.71,0,0,1-.41,1.28,1.92,1.92,0,0,1-1.13.46Zm5.58-9.14a5.39,5.39,0,0,0-4.08,1.72,7.2,7.2,0,0,0-1.7,4.91l11.12-1.53A5.87,5.87,0,0,0,127.71,60,4.93,4.93,0,0,0,123.93,58.55Z"/><path class="cls-2" d="M147.43,70.16a4.82,4.82,0,0,1-1.9,4,8.92,8.92,0,0,1-5.5,1.46,13.81,13.81,0,0,1-2.83-.27,9.8,9.8,0,0,1-2.21-.68,4.64,4.64,0,0,1-1.41-1,1.66,1.66,0,0,1-.51-1.12,1.78,1.78,0,0,1,.27-.93,2.19,2.19,0,0,1,.78-.76,13.37,13.37,0,0,0,2.55,1.43A8.29,8.29,0,0,0,140,73c2.8,0,4.2-.95,4.2-2.83,0-1.54-.93-2.54-2.79-3l-3.35-.89a7.35,7.35,0,0,1-3.6-1.88,4.53,4.53,0,0,1-1.14-3.18,5.05,5.05,0,0,1,.43-2,4.54,4.54,0,0,1,1.31-1.7,6.79,6.79,0,0,1,2.21-1.15,10.11,10.11,0,0,1,3.09-.43,10.73,10.73,0,0,1,4.57.83q1.74.84,1.74,1.92a1.71,1.71,0,0,1-.26.93,1.68,1.68,0,0,1-.71.61,13.71,13.71,0,0,0-2.06-1.05,8,8,0,0,0-3.16-.57,5.28,5.28,0,0,0-2.89.69,2.32,2.32,0,0,0-.46,3.52,3.93,3.93,0,0,0,2,1l2.79.69a8.66,8.66,0,0,1,4.12,2A4.89,4.89,0,0,1,147.43,70.16Z"/><path class="cls-2" d="M160.73,75.66a7.7,7.7,0,0,1-4.59-1.26,4.75,4.75,0,0,1-1.76-4.16V51l.63-.18a3.73,3.73,0,0,1,.91-.1c1.13,0,1.7.48,1.7,1.45v4.65h6.63a3.31,3.31,0,0,1,.24.55,2.27,2.27,0,0,1,.12.75c0,.91-.4,1.37-1.21,1.37h-5.78V70a2.63,2.63,0,0,0,.91,2.28,4.22,4.22,0,0,0,2.56.67,5.74,5.74,0,0,0,1.54-.24,6.64,6.64,0,0,0,1.42-.57,2.46,2.46,0,0,1,.44.61,1.63,1.63,0,0,1,.2.84,1.67,1.67,0,0,1-1.05,1.46A6.16,6.16,0,0,1,160.73,75.66Z"/><path class="cls-2" d="M173.22,55.92a9,9,0,0,1,5.58,1.58,5.85,5.85,0,0,1,2.07,5v9.59a2.24,2.24,0,0,1-.35,1.35,3.4,3.4,0,0,1-1,.87,10.15,10.15,0,0,1-2.57,1,13.9,13.9,0,0,1-3.65.43,10,10,0,0,1-5.89-1.5,5,5,0,0,1-2.08-4.33,4.77,4.77,0,0,1,1.74-4,9.49,9.49,0,0,1,4.89-1.68l5.74-.56V62.47a3.48,3.48,0,0,0-1.21-2.95,5.26,5.26,0,0,0-3.28-.93,10.1,10.1,0,0,0-3.19.49,16.65,16.65,0,0,0-2.67,1.09,4.61,4.61,0,0,1-.59-.65,1.37,1.37,0,0,1-.26-.81,1.55,1.55,0,0,1,.28-.93,2.76,2.76,0,0,1,.89-.68,9.88,9.88,0,0,1,2.51-.87A14.13,14.13,0,0,1,173.22,55.92ZM173.27,73a9.68,9.68,0,0,0,2.81-.35,6.35,6.35,0,0,0,1.59-.66V66.15l-5,.53a6.29,6.29,0,0,0-3.12.95,2.57,2.57,0,0,0-1,2.2,2.71,2.71,0,0,0,1.18,2.37A6.19,6.19,0,0,0,173.27,73Z"/><path class="cls-2" d="M195.4,59.64a5.19,5.19,0,0,0-3.41-1,9.29,9.29,0,0,0-2.87.41,10.83,10.83,0,0,0-2.15.93V75.05c-.13,0-.34.11-.6.18a3.57,3.57,0,0,1-.89.1c-1.16,0-1.74-.48-1.74-1.45V60.09a2.59,2.59,0,0,1,.34-1.4,3.74,3.74,0,0,1,1.19-1.07,12.25,12.25,0,0,1,2.79-1.17,13.59,13.59,0,0,1,3.93-.53,9.24,9.24,0,0,1,5.8,1.66c1.42,1.11,2.12,2.85,2.12,5.22V75.05a6,6,0,0,1-.62.18,3.69,3.69,0,0,1-.87.1c-1.16,0-1.74-.48-1.74-1.45V63A4.06,4.06,0,0,0,195.4,59.64Z"/><path class="cls-1" d="M226.52,53.25a1.47,1.47,0,0,1-.35,1,2.13,2.13,0,0,1-.78.6,17.12,17.12,0,0,0-2.47-1.37,10.06,10.06,0,0,0-7.12,0,7.68,7.68,0,0,0-2.75,1.9,8.92,8.92,0,0,0-1.84,3.15,15,15,0,0,0,0,8.74,8.78,8.78,0,0,0,1.8,3.11,7.26,7.26,0,0,0,2.77,1.88,9.86,9.86,0,0,0,3.6.63,10.4,10.4,0,0,0,3.66-.59,10,10,0,0,0,2.61-1.4,2.15,2.15,0,0,1,.77.59,1.47,1.47,0,0,1,.36,1,1.91,1.91,0,0,1-1,1.54,9.57,9.57,0,0,1-2.55,1.15,14,14,0,0,1-4.12.51,13.46,13.46,0,0,1-4.73-.81,10.24,10.24,0,0,1-3.78-2.41,11.28,11.28,0,0,1-2.53-4,17.09,17.09,0,0,1,0-11.18,11.58,11.58,0,0,1,2.57-4,10.6,10.6,0,0,1,3.78-2.42A12.86,12.86,0,0,1,219,50a16.07,16.07,0,0,1,3.05.28,10.7,10.7,0,0,1,2.39.75A4.88,4.88,0,0,1,226,52.1,1.71,1.71,0,0,1,226.52,53.25Z"/><path class="cls-1" d="M250.94,62.84a16.09,16.09,0,0,1-.89,5.56,11,11,0,0,1-2.46,4,10.53,10.53,0,0,1-3.72,2.43,13.47,13.47,0,0,1-9.31,0,10.53,10.53,0,0,1-3.72-2.43,11,11,0,0,1-2.46-4,16.09,16.09,0,0,1-.89-5.56,15.43,15.43,0,0,1,.91-5.54,11.49,11.49,0,0,1,2.48-4,10.5,10.5,0,0,1,3.73-2.44,13.19,13.19,0,0,1,9.21,0,10.38,10.38,0,0,1,3.72,2.44,11.37,11.37,0,0,1,2.49,4A15.43,15.43,0,0,1,250.94,62.84Zm-3.35,0c0-3.24-.77-5.72-2.29-7.44a7.7,7.7,0,0,0-6.09-2.59,8.43,8.43,0,0,0-3.43.67,7.1,7.1,0,0,0-2.63,1.94,8.77,8.77,0,0,0-1.68,3.13,14.3,14.3,0,0,0-.59,4.29q0,4.84,2.27,7.44a8.44,8.44,0,0,0,12.17,0Q247.59,67.69,247.59,62.84Z"/><path class="cls-1" d="M267.52,68.74a2.91,2.91,0,0,1-.75.37,3.32,3.32,0,0,1-1,.16,3.19,3.19,0,0,1-1.15-.2,1.27,1.27,0,0,1-.71-.65q-2.17-4.53-3.76-8.29c-1.05-2.51-1.9-4.58-2.55-6.23h-.16c-.08,2-.17,3.9-.26,5.64s-.2,3.44-.3,5.1-.22,3.33-.33,5-.21,3.52-.32,5.46a5.65,5.65,0,0,1-.63.16,3.6,3.6,0,0,1-.83.08,1.74,1.74,0,0,1-1.25-.36,1.42,1.42,0,0,1-.36-1.05q0-.4.06-1.74t.18-3.24c.08-1.26.17-2.66.26-4.2s.2-3.1.33-4.69.24-3.16.36-4.69.23-2.94.34-4.21a3.31,3.31,0,0,1,.93-.52,3.57,3.57,0,0,1,1.38-.25,2.61,2.61,0,0,1,2.58,1.5c.52,1,1,2.16,1.56,3.34s1.05,2.36,1.58,3.57,1,2.42,1.54,3.6,1,2.32,1.43,3.4h.16q.9-2.14,1.78-4.23t1.74-4c.57-1.29,1.11-2.51,1.62-3.64s1-2.17,1.37-3.11a2.75,2.75,0,0,1,.93-.3,5.86,5.86,0,0,1,1.05-.11c1.27,0,2,.44,2.19,1.3.11.48.23,1.29.36,2.4s.27,2.41.41,3.87.26,3,.38,4.69.24,3.28.34,4.83.21,3,.29,4.28.14,2.34.2,3.1a3,3,0,0,1-1.7.48,1.94,1.94,0,0,1-1.07-.3,1.42,1.42,0,0,1-.55-1.11c-.13-2-.25-3.92-.36-5.87s-.21-3.78-.3-5.53-.19-3.37-.27-4.84S274.08,55,274,54h-.16c-.3.76-.64,1.61-1,2.55s-.85,2-1.38,3.19-1.11,2.53-1.75,4S268.33,66.91,267.52,68.74Z"/><path class="cls-1" d="M285.35,66.36v8.69l-.64.18a3.57,3.57,0,0,1-.89.1c-1.19,0-1.78-.5-1.78-1.49V52.33a1.38,1.38,0,0,1,.32-1,2.28,2.28,0,0,1,1-.54,14.69,14.69,0,0,1,2.85-.53c1.12-.1,2.21-.16,3.26-.16q5.13,0,7.5,2.16a7.53,7.53,0,0,1,2.36,5.85,7.76,7.76,0,0,1-2.42,6q-2.43,2.25-7.48,2.25Zm3.88-2.75a8.23,8.23,0,0,0,5-1.34A4.8,4.8,0,0,0,296,58.15a4.67,4.67,0,0,0-1.72-4,8.21,8.21,0,0,0-4.91-1.27c-.73,0-1.45,0-2.17.1s-1.35.16-1.92.26v10.4Z"/><path class="cls-1" d="M302.44,74.65a1.72,1.72,0,0,1-.51-1.3V50.63a4.57,4.57,0,0,1,.63-.19,4.3,4.3,0,0,1,.91-.1c1.18,0,1.78.5,1.78,1.5V72.3h11.6a1.8,1.8,0,0,1,.45,1.33,1.56,1.56,0,0,1-.37,1.1,1.22,1.22,0,0,1-1,.4H303.71A1.76,1.76,0,0,1,302.44,74.65Z"/><path class="cls-1" d="M321.87,75.23a3.57,3.57,0,0,1-.89.1c-1.19,0-1.78-.5-1.78-1.49V50.63a4,4,0,0,1,.62-.19,4.45,4.45,0,0,1,.91-.1q1.74,0,1.74,1.5V75.05C322.34,75.1,322.13,75.16,321.87,75.23Z"/><path class="cls-1" d="M344.67,53.25a1.46,1.46,0,0,1-.34,1,2.16,2.16,0,0,1-.79.6,16.11,16.11,0,0,0-2.47-1.37,10,10,0,0,0-7.11,0,7.68,7.68,0,0,0-2.75,1.9,8.63,8.63,0,0,0-1.84,3.15,13,13,0,0,0-.67,4.37,13.36,13.36,0,0,0,.65,4.37,8.78,8.78,0,0,0,1.8,3.11,7.18,7.18,0,0,0,2.77,1.88,9.78,9.78,0,0,0,3.6.63,10.31,10.31,0,0,0,3.65-.59,10,10,0,0,0,2.61-1.4,2.07,2.07,0,0,1,.77.59,1.47,1.47,0,0,1,.36,1,1.91,1.91,0,0,1-1,1.54,9.64,9.64,0,0,1-2.54,1.15,14,14,0,0,1-4.13.51,13.5,13.5,0,0,1-4.73-.81,10.41,10.41,0,0,1-3.78-2.41,11.42,11.42,0,0,1-2.53-4,17.09,17.09,0,0,1,0-11.18,11.72,11.72,0,0,1,2.57-4,10.6,10.6,0,0,1,3.78-2.42,12.86,12.86,0,0,1,4.55-.81,16,16,0,0,1,3.05.28,10.7,10.7,0,0,1,2.39.75,5.06,5.06,0,0,1,1.54,1.05A1.74,1.74,0,0,1,344.67,53.25Z"/><path class="cls-1" d="M362,68.58H351.14c-.19.54-.39,1.13-.6,1.76s-.43,1.25-.63,1.86-.4,1.17-.59,1.7-.34,1-.44,1.31a3.45,3.45,0,0,1-1.34.24,2,2,0,0,1-1.15-.34,1.24,1.24,0,0,1-.51-1.11,2.57,2.57,0,0,1,.13-.75c.08-.25.17-.53.28-.83.4-1.13.92-2.59,1.56-4.37s1.32-3.67,2.06-5.68,1.49-4,2.26-6.06,1.48-3.86,2.13-5.48a4.62,4.62,0,0,1,1-.33,5.83,5.83,0,0,1,1.33-.16,4.81,4.81,0,0,1,1.56.25,1.38,1.38,0,0,1,.95.8c.64,1.57,1.34,3.36,2.08,5.36s1.49,4.07,2.24,6.17,1.48,4.17,2.17,6.21,1.3,3.87,1.84,5.52a2.74,2.74,0,0,1-.77.58,2.21,2.21,0,0,1-1,.22,1.74,1.74,0,0,1-1.17-.34A2.63,2.63,0,0,1,363.8,74Zm-5.42-15.49c-.3.81-.63,1.74-1,2.77s-.77,2.13-1.17,3.26-.81,2.28-1.22,3.44-.78,2.26-1.13,3.31h9.1c-.41-1.21-.82-2.43-1.25-3.66s-.85-2.4-1.24-3.54-.75-2.17-1.09-3.13-.61-1.77-.83-2.45Z"/><path class="cls-1" d="M389.76,62.56a16.43,16.43,0,0,1-.91,5.76,10.78,10.78,0,0,1-2.59,4.06,10.55,10.55,0,0,1-4.06,2.41,17.12,17.12,0,0,1-5.34.79c-.86,0-1.83,0-2.91-.11a13.23,13.23,0,0,1-3.07-.54c-1.14-.35-1.7-1-1.7-1.86V52.28a1.37,1.37,0,0,1,.32-1,2.22,2.22,0,0,1,1-.54,12.28,12.28,0,0,1,2.83-.53c1.05-.08,2.1-.12,3.16-.12a17.37,17.37,0,0,1,5.39.79,11.65,11.65,0,0,1,4.19,2.34,10.68,10.68,0,0,1,2.71,3.89A14,14,0,0,1,389.76,62.56Zm-3.36,0a11.11,11.11,0,0,0-.79-4.43,8.07,8.07,0,0,0-2.14-3,8.33,8.33,0,0,0-3.15-1.72,13.05,13.05,0,0,0-3.86-.55c-.87,0-1.62,0-2.25.08s-1.22.14-1.76.24V72.42a13.11,13.11,0,0,0,2.08.33c.75,0,1.51.08,2.29.08,3.18,0,5.57-.87,7.18-2.59S386.4,66,386.4,62.56Z"/><path class="cls-1" d="M414.55,62.84a16.09,16.09,0,0,1-.89,5.56,11.16,11.16,0,0,1-2.47,4,10.35,10.35,0,0,1-3.72,2.43,13.44,13.44,0,0,1-9.3,0,10.35,10.35,0,0,1-3.72-2.43,11.16,11.16,0,0,1-2.47-4,16.09,16.09,0,0,1-.89-5.56A15.65,15.65,0,0,1,392,57.3a11.66,11.66,0,0,1,2.49-4,10.38,10.38,0,0,1,3.72-2.44,13.22,13.22,0,0,1,9.22,0,10.38,10.38,0,0,1,3.72,2.44,11.66,11.66,0,0,1,2.49,4A15.65,15.65,0,0,1,414.55,62.84Zm-3.36,0q0-4.86-2.28-7.44a7.73,7.73,0,0,0-6.09-2.59,8.48,8.48,0,0,0-3.44.67,7.18,7.18,0,0,0-2.63,1.94,8.91,8.91,0,0,0-1.67,3.13,14,14,0,0,0-.59,4.29q0,4.84,2.26,7.44a8.44,8.44,0,0,0,12.17,0Q411.19,67.69,411.19,62.84Z"/><path class="cls-1" d="M416.81,57.46a2.18,2.18,0,0,1-.55.83,1.31,1.31,0,0,1-.87.26,1.91,1.91,0,0,1-.68-.12,2,2,0,0,1-.57-.32c.08-.51.18-1.1.3-1.76s.23-1.36.33-2.08.18-1.45.26-2.17.15-1.38.2-2a5,5,0,0,1,.69-.18,4.3,4.3,0,0,1,.77-.06c1,0,1.49.52,1.49,1.58a8.36,8.36,0,0,1-.14,1.45c-.09.57-.21,1.14-.34,1.72s-.28,1.13-.45,1.64A12.5,12.5,0,0,1,416.81,57.46Zm5.54,0a1.51,1.51,0,0,1-1.46,1.09,1.91,1.91,0,0,1-.68-.12,1.53,1.53,0,0,1-.53-.32c.08-.51.18-1.1.3-1.76s.23-1.36.33-2.08.18-1.45.26-2.17.15-1.38.2-2a5,5,0,0,1,.69-.18,4.22,4.22,0,0,1,.77-.06c1,0,1.45.52,1.45,1.58a8.36,8.36,0,0,1-.14,1.45c-.09.57-.21,1.14-.34,1.72s-.28,1.13-.45,1.64S422.46,57.16,422.35,57.46Z"/><path class="cls-2" d="M6.27,114.88v8.69c-.16.06-.38.12-.65.19a4.11,4.11,0,0,1-.89.1c-1.19,0-1.78-.5-1.78-1.5V100.85a1.38,1.38,0,0,1,.33-1,2.23,2.23,0,0,1,1-.55,14,14,0,0,1,2.85-.52c1.12-.11,2.2-.17,3.25-.17,3.43,0,5.93.73,7.5,2.17a7.52,7.52,0,0,1,2.37,5.84,7.79,7.79,0,0,1-2.43,6q-2.43,2.23-7.48,2.24Zm3.88-2.75a8.18,8.18,0,0,0,5-1.33,4.82,4.82,0,0,0,1.78-4.13,4.66,4.66,0,0,0-1.72-4,8.11,8.11,0,0,0-4.91-1.28c-.73,0-1.45,0-2.16.1s-1.36.16-1.92.27v10.39Z"/><path class="cls-2" d="M28.51,104.45A9,9,0,0,1,34.09,106a5.89,5.89,0,0,1,2.06,5v9.58a2.28,2.28,0,0,1-.34,1.36,3.36,3.36,0,0,1-1,.86,10.85,10.85,0,0,1-2.57,1,14.5,14.5,0,0,1-3.66.42,10,10,0,0,1-5.89-1.5,5,5,0,0,1-2.08-4.32,4.81,4.81,0,0,1,1.74-4,9.4,9.4,0,0,1,4.89-1.67l5.75-.57V111a3.48,3.48,0,0,0-1.22-3,5.25,5.25,0,0,0-3.27-.93,10.41,10.41,0,0,0-3.2.48,18.06,18.06,0,0,0-2.67,1.09,4,4,0,0,1-.58-.64,1.36,1.36,0,0,1-.27-.81,1.46,1.46,0,0,1,.29-.93,2.67,2.67,0,0,1,.89-.69,9.8,9.8,0,0,1,2.5-.87A14.9,14.9,0,0,1,28.51,104.45Zm0,17.1a9.67,9.67,0,0,0,2.81-.34,6.57,6.57,0,0,0,1.6-.67v-5.86l-5,.52a6.42,6.42,0,0,0-3.11,1,2.57,2.57,0,0,0-1,2.21A2.72,2.72,0,0,0,25,120.72,6.14,6.14,0,0,0,28.55,121.55Z"/><path class="cls-2" d="M39,105.05a6.32,6.32,0,0,1,.63-.18,3.73,3.73,0,0,1,.91-.1c1.13,0,1.7.5,1.7,1.5v10.39a4.54,4.54,0,0,0,1.37,3.74,5.89,5.89,0,0,0,3.8,1.11,9.51,9.51,0,0,0,2.75-.34,9.2,9.2,0,0,0,1.78-.71V105.05a5.6,5.6,0,0,1,.63-.18,3.57,3.57,0,0,1,.87-.1q1.74,0,1.74,1.5v14.07a3.35,3.35,0,0,1-.23,1.35,2.37,2.37,0,0,1-1.07,1,12.35,12.35,0,0,1-2.57,1,13.71,13.71,0,0,1-3.94.49,9.55,9.55,0,0,1-6.21-1.78Q39,120.61,39,116.82Z"/><path class="cls-2" d="M61.18,123.76a4.11,4.11,0,0,1-.89.1c-1.16,0-1.74-.49-1.74-1.46v-25a6.32,6.32,0,0,1,.63-.18,3.57,3.57,0,0,1,.87-.1c1.16,0,1.74.48,1.74,1.45v24.95A4.58,4.58,0,0,1,61.18,123.76Z"/><path class="cls-2" d="M74.08,123.57c-.16.06-.38.12-.65.19a4.11,4.11,0,0,1-.89.1c-1.19,0-1.78-.5-1.78-1.5V100.85a1.42,1.42,0,0,1,.32-1,2.33,2.33,0,0,1,1-.55A14.07,14.07,0,0,1,75,98.79c1.14-.11,2.25-.17,3.33-.17,3.4,0,5.93.69,7.58,2a7.07,7.07,0,0,1,2.49,5.8A7.6,7.6,0,0,1,87,111.16a7.88,7.88,0,0,1-4.35,2.71c.67.86,1.35,1.72,2,2.59l1.92,2.44c.61.77,1.15,1.47,1.62,2.09l1.11,1.45a1.81,1.81,0,0,1-.71,1.09,1.88,1.88,0,0,1-2.24.08,4,4,0,0,1-.93-1l-5.9-8.25H74.08Zm4.61-12a7.6,7.6,0,0,0,4.69-1.29,4.53,4.53,0,0,0,1.7-3.84,4.4,4.4,0,0,0-1.78-3.82,8.69,8.69,0,0,0-5.1-1.28c-.73,0-1.46,0-2.2.1s-1.4.16-2,.27v9.86Z"/><path class="cls-2" d="M97.61,104.45a9,9,0,0,1,5.58,1.57,5.86,5.86,0,0,1,2.06,5v9.58a2.28,2.28,0,0,1-.34,1.36,3.24,3.24,0,0,1-1,.86,10.68,10.68,0,0,1-2.57,1,14.39,14.39,0,0,1-3.66.42,9.94,9.94,0,0,1-5.88-1.5,5,5,0,0,1-2.08-4.32,4.8,4.8,0,0,1,1.73-4,9.4,9.4,0,0,1,4.9-1.67l5.74-.57V111a3.5,3.5,0,0,0-1.21-3,5.26,5.26,0,0,0-3.28-.93,10.34,10.34,0,0,0-3.19.48,17.63,17.63,0,0,0-2.67,1.09,3.59,3.59,0,0,1-.59-.64,1.42,1.42,0,0,1-.26-.81,1.45,1.45,0,0,1,.28-.93,2.78,2.78,0,0,1,.89-.69,9.74,9.74,0,0,1,2.51-.87A14.73,14.73,0,0,1,97.61,104.45Zm0,17.1a9.67,9.67,0,0,0,2.81-.34,6.57,6.57,0,0,0,1.6-.67v-5.86l-5,.52a6.42,6.42,0,0,0-3.11,1,2.59,2.59,0,0,0-1,2.21,2.72,2.72,0,0,0,1.17,2.36A6.14,6.14,0,0,0,97.65,121.55Z"/><path class="cls-2" d="M119.79,108.17a5.21,5.21,0,0,0-3.42-1,9.34,9.34,0,0,0-2.87.4,10.73,10.73,0,0,0-2.14.93v15.12a4.58,4.58,0,0,1-.61.19,4,4,0,0,1-.89.1c-1.16,0-1.74-.49-1.74-1.46V108.61a2.56,2.56,0,0,1,.35-1.39,3.53,3.53,0,0,1,1.19-1.07,11.61,11.61,0,0,1,2.79-1.18,13.58,13.58,0,0,1,3.92-.52,9.19,9.19,0,0,1,5.81,1.66q2.11,1.65,2.12,5.21v12.25a4.57,4.57,0,0,1-.63.19,4.14,4.14,0,0,1-.87.1c-1.16,0-1.74-.49-1.74-1.46V111.48A4,4,0,0,0,119.79,108.17Z"/><path class="cls-2" d="M143.3,120.58a2,2,0,0,1-.34,1.25,3.85,3.85,0,0,1-1.07.89,8.83,8.83,0,0,1-2.31,1,11.58,11.58,0,0,1-3.44.47,13.38,13.38,0,0,1-4-.57,8,8,0,0,1-3.13-1.76,7.66,7.66,0,0,1-2-3,12.14,12.14,0,0,1-.71-4.43,12.34,12.34,0,0,1,.73-4.5,8.45,8.45,0,0,1,2-3.1,7.51,7.51,0,0,1,2.91-1.78,11.33,11.33,0,0,1,3.58-.56,9.42,9.42,0,0,1,2.5.32,10.1,10.1,0,0,1,2.11.81V97.45a6,6,0,0,1,.62-.18,3.69,3.69,0,0,1,.87-.1c1.16,0,1.74.48,1.74,1.45Zm-3.23-12.09a8.58,8.58,0,0,0-1.86-1,6.73,6.73,0,0,0-2.43-.4,7.08,7.08,0,0,0-2.36.38,4.91,4.91,0,0,0-2,1.25A6.17,6.17,0,0,0,130.1,111a10.18,10.18,0,0,0-.51,3.44c0,2.48.6,4.27,1.78,5.37a6.66,6.66,0,0,0,4.73,1.66,7.58,7.58,0,0,0,2.33-.3,7.72,7.72,0,0,0,1.64-.75Z"/></g></g></svg>