<svg xmlns="http://www.w3.org/2000/svg" viewBox="0 0 455.33 139.28"><defs><style>.cls-1{fill:#009bc5;}.cls-2{fill:#4dbcc5;}.cls-3{fill:#026581;}</style></defs><g id="Capa_2" data-name="Capa 2"><g id="Capa_1-2" data-name="Capa 1"><path class="cls-1" d="M54.93,136.94A42.2,42.2,0,1,1,70,65h0L57.2,77.78l-.33-.26a24.14,24.14,0,1,0-18,43.09h0Z"/><path class="cls-2" d="M49.13,119.83l13.69,13.69,0,0A42.2,42.2,0,0,0,84.4,96.7,40.33,40.33,0,0,0,84.14,92h-34v14.24H64.38a24.21,24.21,0,0,1-15.11,13.53Z"/><path class="cls-3" d="M18.72,2.57A2.57,2.57,0,0,0,16.15,0H5.38A2.57,2.57,0,0,0,2.81,2.57V70.06l.1-.13A47.68,47.68,0,0,1,18.72,55.35Z"/><path class="cls-3" d="M104.22,113.63a1.52,1.52,0,0,1-.45-1.15V92.21a4,4,0,0,1,.56-.17,3.47,3.47,0,0,1,.81-.09c1.06,0,1.59.45,1.59,1.34v18.25h10.35a1.59,1.59,0,0,1,.4,1.19,1.37,1.37,0,0,1-.33,1,1.09,1.09,0,0,1-.86.36H105.36A1.57,1.57,0,0,1,104.22,113.63Z"/><path class="cls-3" d="M137.81,109.81a6.8,6.8,0,0,1-1.66,2.52,7.73,7.73,0,0,1-2.69,1.63,11.94,11.94,0,0,1-7.29,0,7.46,7.46,0,0,1-2.67-1.63,6.76,6.76,0,0,1-1.64-2.52,9.4,9.4,0,0,1-.56-3.32V92.21a4,4,0,0,1,.56-.17,3.47,3.47,0,0,1,.81-.09c1,0,1.55.45,1.55,1.34v12.95a6.71,6.71,0,0,0,.44,2.52,5.38,5.38,0,0,0,1.17,1.82,4.5,4.5,0,0,0,1.77,1.1,7,7,0,0,0,4.43,0,4.5,4.5,0,0,0,1.77-1.1,5.38,5.38,0,0,0,1.17-1.82,6.71,6.71,0,0,0,.44-2.52v-14A3.56,3.56,0,0,1,136,92a3.47,3.47,0,0,1,.81-.09c1.05,0,1.58.45,1.58,1.34v13.2A9.4,9.4,0,0,1,137.81,109.81Z"/><path class="cls-3" d="M147.16,114.15a3.22,3.22,0,0,1-.79.1c-1.06,0-1.59-.45-1.59-1.34V92.21a4,4,0,0,1,.56-.17,3.59,3.59,0,0,1,.81-.09c1,0,1.56.45,1.56,1.34V114A4.47,4.47,0,0,1,147.16,114.15Z"/><path class="cls-3" d="M160.26,112.08a5.39,5.39,0,0,0,3.66-1.1,3.6,3.6,0,0,0,1.24-2.83,3.25,3.25,0,0,0-.95-2.45,7.21,7.21,0,0,0-3-1.56l-3.14-.93a8.35,8.35,0,0,1-3.63-2,4.9,4.9,0,0,1-1.31-3.61,5.66,5.66,0,0,1,.52-2.47,5.19,5.19,0,0,1,1.5-1.86,7.33,7.33,0,0,1,2.32-1.17,10.27,10.27,0,0,1,3-.42,14.24,14.24,0,0,1,2.69.24,9.51,9.51,0,0,1,2.16.65,4.59,4.59,0,0,1,1.43.92,1.5,1.5,0,0,1,.5,1,1.46,1.46,0,0,1-.25.87,1.92,1.92,0,0,1-.65.58A9.18,9.18,0,0,0,164,94.69a9.79,9.79,0,0,0-3.34-.54,5.5,5.5,0,0,0-3.34.9,3,3,0,0,0-1.21,2.53,2.67,2.67,0,0,0,.87,2.06,7.4,7.4,0,0,0,2.89,1.37l2.2.65a11.18,11.18,0,0,1,4.49,2.32,5.38,5.38,0,0,1,1.64,4.17,5.81,5.81,0,0,1-2.06,4.62,8.74,8.74,0,0,1-5.84,1.76,14.61,14.61,0,0,1-3-.28,10.42,10.42,0,0,1-2.31-.76,5,5,0,0,1-1.48-1,1.63,1.63,0,0,1-.52-1.1,1.44,1.44,0,0,1,.38-1,2.17,2.17,0,0,1,.88-.59,8.62,8.62,0,0,0,1,.81,7.7,7.7,0,0,0,1.34.75,8.59,8.59,0,0,0,1.69.56A8.86,8.86,0,0,0,160.26,112.08Z"/><path class="cls-3" d="M196.29,94.55a1.31,1.31,0,0,1-.3.87,2,2,0,0,1-.71.54,14,14,0,0,0-2.2-1.23,8,8,0,0,0-3.28-.58,8.11,8.11,0,0,0-3.07.58,7,7,0,0,0-2.45,1.7,7.82,7.82,0,0,0-1.64,2.81,11.66,11.66,0,0,0-.6,3.9,12,12,0,0,0,.58,3.89,7.89,7.89,0,0,0,1.61,2.78,6.62,6.62,0,0,0,2.47,1.68,8.86,8.86,0,0,0,3.21.55,9,9,0,0,0,5.59-1.76,1.7,1.7,0,0,1,.68.52,1.3,1.3,0,0,1,.33.88,1.69,1.69,0,0,1-.87,1.37,8.2,8.2,0,0,1-2.27,1,12.6,12.6,0,0,1-3.68.45,12.1,12.1,0,0,1-4.22-.72,9.2,9.2,0,0,1-3.37-2.14,10.3,10.3,0,0,1-2.26-3.56,15.21,15.21,0,0,1,0-10,10.49,10.49,0,0,1,2.29-3.59,9.37,9.37,0,0,1,3.37-2.16,11.54,11.54,0,0,1,4.06-.73,13.61,13.61,0,0,1,2.73.26,9.66,9.66,0,0,1,2.12.66,4.56,4.56,0,0,1,1.38.94A1.55,1.55,0,0,1,196.29,94.55Z"/><path class="cls-3" d="M214.43,108.22h-9.66c-.17.48-.35,1-.54,1.57s-.38,1.12-.56,1.66-.36,1-.53,1.51-.3.86-.39,1.18a3.12,3.12,0,0,1-1.19.21,1.81,1.81,0,0,1-1-.3,1.13,1.13,0,0,1-.45-1,2,2,0,0,1,.11-.66c.07-.23.15-.48.25-.74l1.39-3.9c.56-1.59,1.17-3.27,1.84-5.07s1.33-3.59,2-5.41,1.31-3.44,1.89-4.88a3.78,3.78,0,0,1,.87-.29,4.68,4.68,0,0,1,1.19-.15,4.35,4.35,0,0,1,1.39.22,1.19,1.19,0,0,1,.84.72q.87,2.1,1.86,4.78c.66,1.79,1.33,3.63,2,5.5s1.32,3.72,1.93,5.54,1.16,3.46,1.64,4.92a2.16,2.16,0,0,1-.68.52,1.92,1.92,0,0,1-.9.2,1.6,1.6,0,0,1-1.05-.3,2.32,2.32,0,0,1-.61-1ZM209.6,94.41c-.26.72-.57,1.54-.9,2.47s-.69,1.89-1,2.9-.72,2-1.08,3.07-.7,2-1,3h8.12c-.36-1.08-.74-2.17-1.12-3.26s-.75-2.15-1.1-3.16-.68-1.94-1-2.79-.54-1.58-.74-2.18Z"/><path class="cls-3" d="M226.52,114l-.58.16a3.28,3.28,0,0,1-.79.1c-1.06,0-1.59-.45-1.59-1.34V93.72a1.24,1.24,0,0,1,.29-.88,1.91,1.91,0,0,1,.9-.49,13,13,0,0,1,2.58-.47c1-.09,2-.14,3-.14,3,0,5.28.6,6.76,1.82a6.31,6.31,0,0,1,2.22,5.17,6.78,6.78,0,0,1-1.28,4.19,7.11,7.11,0,0,1-3.88,2.42l1.8,2.3c.6.77,1.17,1.5,1.72,2.19s1,1.3,1.44,1.85l1,1.3a1.72,1.72,0,0,1-2.63,1,3.7,3.7,0,0,1-.83-.9l-5.27-7.36h-4.83Zm4.11-10.67a6.74,6.74,0,0,0,4.18-1.16,4,4,0,0,0,1.52-3.43,3.9,3.9,0,0,0-1.59-3.4,7.71,7.71,0,0,0-4.54-1.14c-.65,0-1.31,0-2,.09s-1.24.14-1.75.23v8.81Z"/><path class="cls-3" d="M245.26,113.63a1.53,1.53,0,0,1-.46-1.15V92.21a4,4,0,0,1,.56-.17,3.62,3.62,0,0,1,.82-.09c1,0,1.58.45,1.58,1.34v18.25h10.36a1.62,1.62,0,0,1,.39,1.19,1.42,1.42,0,0,1-.32,1,1.12,1.12,0,0,1-.87.36H246.39A1.55,1.55,0,0,1,245.26,113.63Z"/><path class="cls-3" d="M281.45,103.1a14.26,14.26,0,0,1-.79,5,9.86,9.86,0,0,1-2.2,3.57,9.26,9.26,0,0,1-3.32,2.16,12,12,0,0,1-8.3,0,9.23,9.23,0,0,1-3.31-2.16,9.72,9.72,0,0,1-2.2-3.57,14.25,14.25,0,0,1-.8-5,13.83,13.83,0,0,1,.81-4.94,10.36,10.36,0,0,1,2.22-3.57,9.29,9.29,0,0,1,3.32-2.19,11.81,11.81,0,0,1,8.23,0,9.17,9.17,0,0,1,3.31,2.19,10.21,10.21,0,0,1,2.22,3.57A13.83,13.83,0,0,1,281.45,103.1Zm-3,0q0-4.34-2-6.64A6.89,6.89,0,0,0,271,94.15a7.53,7.53,0,0,0-3.06.6,6.28,6.28,0,0,0-2.35,1.73,7.76,7.76,0,0,0-1.49,2.79,12.75,12.75,0,0,0-.53,3.83c0,2.88.68,5.1,2,6.64a7.56,7.56,0,0,0,10.86,0C277.79,108.2,278.46,106,278.46,103.1Z"/><path class="cls-3" d="M292.71,112.08a5.39,5.39,0,0,0,3.66-1.1,3.6,3.6,0,0,0,1.24-2.83,3.29,3.29,0,0,0-.95-2.45,7.21,7.21,0,0,0-3-1.56l-3.14-.93a8.35,8.35,0,0,1-3.63-2,4.9,4.9,0,0,1-1.32-3.61,5.66,5.66,0,0,1,.53-2.47,5.19,5.19,0,0,1,1.5-1.86,7.23,7.23,0,0,1,2.32-1.17,10.27,10.27,0,0,1,3-.42,14.24,14.24,0,0,1,2.69.24,9.51,9.51,0,0,1,2.16.65,4.71,4.71,0,0,1,1.43.92,1.5,1.5,0,0,1,.5,1,1.46,1.46,0,0,1-.25.87,2,2,0,0,1-.65.58,9.18,9.18,0,0,0-2.43-1.27,9.83,9.83,0,0,0-3.34-.54,5.5,5.5,0,0,0-3.34.9,3,3,0,0,0-1.21,2.53,2.67,2.67,0,0,0,.87,2.06,7.41,7.41,0,0,0,2.88,1.37l2.2.65A11.23,11.23,0,0,1,299,104a5.38,5.38,0,0,1,1.64,4.17,5.81,5.81,0,0,1-2.06,4.62,8.74,8.74,0,0,1-5.84,1.76,14.61,14.61,0,0,1-3-.28,10.25,10.25,0,0,1-2.31-.76,5,5,0,0,1-1.48-1,1.63,1.63,0,0,1-.52-1.1,1.48,1.48,0,0,1,.37-1,2.28,2.28,0,0,1,.89-.59,8.62,8.62,0,0,0,1,.81,7.7,7.7,0,0,0,1.34.75,8.59,8.59,0,0,0,1.69.56A8.86,8.86,0,0,0,292.71,112.08Z"/><path class="cls-3" d="M337.29,111.54a1.6,1.6,0,0,1-.38,1.08,3.73,3.73,0,0,1-1.14.83,11.1,11.1,0,0,1-2.49.76,15.61,15.61,0,0,1-3.21.32,14.92,14.92,0,0,1-4.61-.68,9.74,9.74,0,0,1-3.61-2.09,9.37,9.37,0,0,1-2.34-3.56,13.87,13.87,0,0,1-.83-5.06,13.66,13.66,0,0,1,.86-5,10.07,10.07,0,0,1,2.36-3.59,9.69,9.69,0,0,1,3.49-2.13,12.46,12.46,0,0,1,4.22-.71,14.23,14.23,0,0,1,2.79.26,10.27,10.27,0,0,1,2.18.66,5.13,5.13,0,0,1,1.41.92,1.47,1.47,0,0,1,.51,1,1.36,1.36,0,0,1-.29.87,1.88,1.88,0,0,1-.69.54,14.55,14.55,0,0,0-2.31-1.21,9,9,0,0,0-3.42-.56,8.81,8.81,0,0,0-3.21.58,7.22,7.22,0,0,0-2.57,1.7,7.76,7.76,0,0,0-1.69,2.81,13,13,0,0,0,0,7.92,7.38,7.38,0,0,0,1.77,2.76,7.12,7.12,0,0,0,2.66,1.6,10.3,10.3,0,0,0,3.34.52,13.63,13.63,0,0,0,2.45-.21,7.75,7.75,0,0,0,1.81-.54v-6.64h-5.45a3.42,3.42,0,0,1-.22-.49,2,2,0,0,1-.1-.66,1.46,1.46,0,0,1,.28-1,1,1,0,0,1,.83-.34h6a1.59,1.59,0,0,1,1.1.41,1.44,1.44,0,0,1,.45,1.1Z"/><path class="cls-3" d="M359.46,109.81a6.8,6.8,0,0,1-1.66,2.52,7.73,7.73,0,0,1-2.69,1.63,11.94,11.94,0,0,1-7.29,0,7.46,7.46,0,0,1-2.67-1.63,6.76,6.76,0,0,1-1.64-2.52,9.4,9.4,0,0,1-.56-3.32V92.21a4,4,0,0,1,.56-.17,3.47,3.47,0,0,1,.81-.09c1,0,1.55.45,1.55,1.34v12.95a6.71,6.71,0,0,0,.44,2.52,5.38,5.38,0,0,0,1.17,1.82,4.5,4.5,0,0,0,1.77,1.1,7,7,0,0,0,4.43,0,4.5,4.5,0,0,0,1.77-1.1,5.38,5.38,0,0,0,1.17-1.82,6.71,6.71,0,0,0,.44-2.52v-14a3.56,3.56,0,0,1,.56-.17,3.47,3.47,0,0,1,.81-.09c1.05,0,1.58.45,1.58,1.34v13.2A9.4,9.4,0,0,1,359.46,109.81Z"/><path class="cls-3" d="M381.1,92.75a1.56,1.56,0,0,1,.2.75,2.06,2.06,0,0,1-.2.91,8.73,8.73,0,0,1-.56.9l-11.87,16.27h12.52a1.78,1.78,0,0,1,.25.48,2.2,2.2,0,0,1,.11.71,1.34,1.34,0,0,1-.31,1,1,1,0,0,1-.81.34H365.68a2,2,0,0,1-.49-.61,1.57,1.57,0,0,1-.2-.76,2,2,0,0,1,.2-.9,7.28,7.28,0,0,1,.56-.9l11.87-16.27h-12a3.66,3.66,0,0,1-.23-.48,1.76,1.76,0,0,1-.13-.71,1.39,1.39,0,0,1,.31-1,1.08,1.08,0,0,1,.85-.35h14.21A2.53,2.53,0,0,1,381.1,92.75Z"/><path class="cls-3" d="M398.79,108.37a2.8,2.8,0,0,1-.67.32,2.65,2.65,0,0,1-.92.14,2.78,2.78,0,0,1-1-.18,1.11,1.11,0,0,1-.63-.57c-1.3-2.7-2.41-5.16-3.35-7.4s-1.7-4.09-2.27-5.55h-.15c-.07,1.8-.15,3.48-.23,5s-.18,3.07-.27,4.54-.2,3-.29,4.49-.2,3.14-.29,4.87a4.75,4.75,0,0,1-.56.15,3.45,3.45,0,0,1-.74.07,1.59,1.59,0,0,1-1.12-.32A1.3,1.3,0,0,1,386,113c0-.24,0-.76.05-1.55s.09-1.76.16-2.89.15-2.38.24-3.75.18-2.76.29-4.18.21-2.82.32-4.19.21-2.62.31-3.75a3,3,0,0,1,.83-.47,3.36,3.36,0,0,1,1.22-.22,2.35,2.35,0,0,1,2.31,1.34c.46.94.92,1.93,1.39,3s.94,2.11,1.41,3.19.92,2.15,1.37,3.21.87,2.07,1.28,3h.14c.53-1.28,1.06-2.53,1.59-3.77s1.05-2.44,1.55-3.59l1.44-3.25c.46-1,.87-1.93,1.23-2.77a2.7,2.7,0,0,1,.83-.27,5.48,5.48,0,0,1,.94-.1c1.13,0,1.78.39,1.95,1.16.09.43.2,1.15.32,2.15s.24,2.14.36,3.44.24,2.69.35,4.18.21,2.93.3,4.31.18,2.66.25,3.83.14,2.09.18,2.76a2.63,2.63,0,0,1-1.51.43,1.74,1.74,0,0,1-1-.27,1.24,1.24,0,0,1-.48-1c-.12-1.76-.23-3.5-.33-5.23s-.18-3.38-.27-4.94-.16-3-.23-4.31-.14-2.43-.18-3.34h-.15c-.26.67-.57,1.43-.92,2.27s-.75,1.79-1.22,2.85-1,2.26-1.57,3.59S399.51,106.73,398.79,108.37Z"/><path class="cls-3" d="M426.85,108.22h-9.66l-.55,1.57-.55,1.66c-.18.54-.36,1-.53,1.51s-.3.86-.39,1.18a3.14,3.14,0,0,1-1.2.21,1.8,1.8,0,0,1-1-.3,1.13,1.13,0,0,1-.45-1,2.25,2.25,0,0,1,.1-.66c.08-.23.16-.48.26-.74l1.39-3.9c.56-1.59,1.17-3.27,1.84-5.07s1.33-3.59,2-5.41,1.31-3.44,1.89-4.88a3.84,3.84,0,0,1,.86-.29,4.81,4.81,0,0,1,1.2-.15,4.24,4.24,0,0,1,1.38.22,1.19,1.19,0,0,1,.85.72q.87,2.1,1.86,4.78c.66,1.79,1.33,3.63,2,5.5s1.32,3.72,1.93,5.54,1.16,3.46,1.64,4.92a2.16,2.16,0,0,1-.68.52,1.92,1.92,0,0,1-.9.2,1.6,1.6,0,0,1-1.05-.3,2.32,2.32,0,0,1-.61-1ZM422,94.41c-.27.72-.57,1.54-.9,2.47s-.69,1.89-1.05,2.9-.72,2-1.08,3.07-.7,2-1,3h8.11c-.36-1.08-.73-2.17-1.11-3.26s-.75-2.15-1.1-3.16-.68-1.94-1-2.79-.54-1.58-.74-2.18Z"/><path class="cls-3" d="M437.57,114.25c-1.06,0-1.59-.44-1.59-1.3V92.57a2.61,2.61,0,0,1,1.95-.65,2.93,2.93,0,0,1,1.47.34,3.06,3.06,0,0,1,1.12,1.24l6.89,11.55c.29.5.59,1,.9,1.6s.62,1.13.91,1.7.56,1.09.81,1.58l.63,1.25.14,0c-.19-2-.3-3.9-.34-5.88s0-3.89,0-5.77V92.21c.14,0,.33-.11.57-.17a3.32,3.32,0,0,1,.8-.09c1.06,0,1.58.44,1.58,1.3v20.42a2.26,2.26,0,0,1-.83.45,3.54,3.54,0,0,1-1.11.16,3,3,0,0,1-1.48-.34,3.1,3.1,0,0,1-1.12-1.25L442,101.15c-.29-.48-.6-1-.92-1.59s-.64-1.14-.94-1.69-.58-1.08-.83-1.59L438.65,95l-.15,0c.12,1.16.22,2.48.29,4s.11,2.87.11,4.2V114a4.22,4.22,0,0,1-.56.16A3.32,3.32,0,0,1,437.57,114.25Z"/><path class="cls-1" d="M113.33,129.22a7.94,7.94,0,0,1-.45,2.8,5.24,5.24,0,0,1-1.25,2,5.05,5.05,0,0,1-2,1.16,8.1,8.1,0,0,1-2.59.39c-.42,0-.89,0-1.41,0a6.54,6.54,0,0,1-1.49-.27c-.55-.17-.82-.47-.82-.9V124.24a.69.69,0,0,1,.15-.48,1.08,1.08,0,0,1,.49-.26,6.17,6.17,0,0,1,1.37-.26q.77-.06,1.53-.06a8.33,8.33,0,0,1,2.62.39,5.51,5.51,0,0,1,2,1.13,5.18,5.18,0,0,1,1.31,1.88A6.72,6.72,0,0,1,113.33,129.22Zm-1.63,0a5.55,5.55,0,0,0-.38-2.15,4.16,4.16,0,0,0-1-1.46,4.36,4.36,0,0,0-1.53-.83,6.31,6.31,0,0,0-1.87-.26c-.42,0-.79,0-1.09,0a6.94,6.94,0,0,0-.86.11V134a6.29,6.29,0,0,0,1,.15c.36,0,.73,0,1.11,0a4.55,4.55,0,0,0,3.48-1.25A5.3,5.3,0,0,0,111.7,129.22Z"/><path class="cls-1" d="M115.72,123.4a.94.94,0,0,1,.28-.7,1,1,0,0,1,.74-.28,1,1,0,0,1,1,1,.92.92,0,0,1-.28.69,1,1,0,0,1-.72.29,1,1,0,0,1-.74-.29A.92.92,0,0,1,115.72,123.4Zm1.8,11.88a1.44,1.44,0,0,1-.29.09,2,2,0,0,1-.43,0c-.57,0-.85-.24-.85-.71V126.3a1.74,1.74,0,0,1,.31-.09,2,2,0,0,1,.44,0c.55,0,.82.25.82.73Z"/><path class="cls-1" d="M127,132.91a2.35,2.35,0,0,1-.92,2,4.34,4.34,0,0,1-2.67.7,7.35,7.35,0,0,1-1.37-.12,5,5,0,0,1-1.07-.34,2,2,0,0,1-.68-.47.75.75,0,0,1-.25-.54.86.86,0,0,1,.13-.45,1.12,1.12,0,0,1,.38-.37,6.3,6.3,0,0,0,1.24.7,4,4,0,0,0,1.6.3c1.36,0,2-.46,2-1.37,0-.75-.45-1.23-1.35-1.45l-1.63-.43a3.48,3.48,0,0,1-1.74-.92,2.15,2.15,0,0,1-.55-1.54,2.56,2.56,0,0,1,.2-1,2.26,2.26,0,0,1,.64-.82,3.49,3.49,0,0,1,1.07-.56,5.09,5.09,0,0,1,1.5-.2,5.19,5.19,0,0,1,2.22.4q.84.41.84.93a.77.77,0,0,1-.13.45.74.74,0,0,1-.34.29,8.17,8.17,0,0,0-1-.51,4,4,0,0,0-1.53-.27,2.57,2.57,0,0,0-1.4.33,1.13,1.13,0,0,0-.23,1.71,1.87,1.87,0,0,0,1,.47l1.35.33a4.41,4.41,0,0,1,2,1A2.37,2.37,0,0,1,127,132.91Z"/><path class="cls-1" d="M130.56,131.71a3,3,0,0,0,3.37,2.57,3.92,3.92,0,0,0,1.49-.27,4.44,4.44,0,0,0,1.06-.59.83.83,0,0,1,.47.74.76.76,0,0,1-.24.53,2.31,2.31,0,0,1-.67.45,4.7,4.7,0,0,1-1,.32,5.79,5.79,0,0,1-1.21.11,5.11,5.11,0,0,1-3.6-1.23,4.71,4.71,0,0,1-1.32-3.61,5.85,5.85,0,0,1,.32-2,4.34,4.34,0,0,1,.91-1.48,3.91,3.91,0,0,1,1.38-.93,4.53,4.53,0,0,1,1.74-.32,4.33,4.33,0,0,1,1.63.29,3.77,3.77,0,0,1,1.29.83,3.85,3.85,0,0,1,.84,1.28,4.25,4.25,0,0,1,.3,1.62.81.81,0,0,1-.19.61,1,1,0,0,1-.55.23Zm2.7-4.43a2.64,2.64,0,0,0-2,.83,3.53,3.53,0,0,0-.82,2.39l5.39-.75a2.87,2.87,0,0,0-.75-1.77A2.39,2.39,0,0,0,133.26,127.28Z"/><path class="cls-1" d="M146.09,129.42a2,2,0,0,0-.62-1.61,2.53,2.53,0,0,0-1.66-.51,4.52,4.52,0,0,0-1.39.2,5.07,5.07,0,0,0-1,.45v7.33a1.44,1.44,0,0,1-.29.09,2,2,0,0,1-.43,0c-.57,0-.85-.24-.85-.71V128a1.27,1.27,0,0,1,.17-.68,1.67,1.67,0,0,1,.58-.52,5.82,5.82,0,0,1,1.35-.57,6.57,6.57,0,0,1,1.9-.25,4.46,4.46,0,0,1,2.82.8,3,3,0,0,1,1,2.53v5.94a1.38,1.38,0,0,1-.3.09,2,2,0,0,1-.42,0c-.56,0-.84-.24-.84-.71Zm-4-6.86a2.64,2.64,0,0,1,.76.1c.24.07.45.15.66.23l.58.22a1.29,1.29,0,0,0,.53.11.67.67,0,0,0,.52-.2,1.34,1.34,0,0,0,.24-.54h.12a1.23,1.23,0,0,1,.63.16.63.63,0,0,1,.27.58,1.08,1.08,0,0,1-.39.89,1.56,1.56,0,0,1-1,.33,2.9,2.9,0,0,1-.79-.11,6.19,6.19,0,0,1-.69-.24l-.6-.23a1.42,1.42,0,0,0-.51-.11.56.56,0,0,0-.51.22,1.47,1.47,0,0,0-.23.55h-.12a1.11,1.11,0,0,1-.63-.18.64.64,0,0,1-.27-.57,1,1,0,0,1,.45-.89A1.67,1.67,0,0,1,142.13,122.56Z"/><path class="cls-1" d="M153.81,126a4.36,4.36,0,0,1,2.71.76,2.86,2.86,0,0,1,1,2.41v4.65a1.11,1.11,0,0,1-.17.66,1.66,1.66,0,0,1-.5.42,5.35,5.35,0,0,1-1.24.48,6.87,6.87,0,0,1-1.78.2,4.84,4.84,0,0,1-2.85-.72,2.44,2.44,0,0,1-1-2.1,2.33,2.33,0,0,1,.84-2,4.49,4.49,0,0,1,2.37-.81l2.79-.28v-.55a1.7,1.7,0,0,0-.59-1.43,2.55,2.55,0,0,0-1.59-.45,4.93,4.93,0,0,0-1.55.24,8.66,8.66,0,0,0-1.29.52,1.72,1.72,0,0,1-.29-.31.69.69,0,0,1-.12-.39.67.67,0,0,1,.14-.45,1.19,1.19,0,0,1,.43-.33,4.53,4.53,0,0,1,1.21-.43A7.78,7.78,0,0,1,153.81,126Zm0,8.29a4.7,4.7,0,0,0,1.36-.17,3.47,3.47,0,0,0,.78-.32V131l-2.43.25a3.1,3.1,0,0,0-1.51.46,1.24,1.24,0,0,0-.49,1.07,1.32,1.32,0,0,0,.57,1.15A3,3,0,0,0,153.83,134.3Z"/><path class="cls-1" d="M168.12,133.83a1,1,0,0,1-.16.61,2.19,2.19,0,0,1-.52.43,4.66,4.66,0,0,1-1.12.48,5.63,5.63,0,0,1-1.67.22,6.64,6.64,0,0,1-1.94-.27,4,4,0,0,1-1.52-.85,3.92,3.92,0,0,1-1-1.47,6,6,0,0,1-.34-2.15,6.21,6.21,0,0,1,.35-2.19,4.53,4.53,0,0,1,.95-1.5,3.62,3.62,0,0,1,1.42-.86,5.45,5.45,0,0,1,1.73-.27,5,5,0,0,1,1.22.15,4.82,4.82,0,0,1,1,.4v-4l.3-.08a1.51,1.51,0,0,1,.42,0c.56,0,.84.23.84.7ZM166.56,128a4.11,4.11,0,0,0-.91-.47,3.26,3.26,0,0,0-1.17-.2,3.34,3.34,0,0,0-1.15.19,2.33,2.33,0,0,0-1,.6,3.34,3.34,0,0,0-.66,1.11,5.08,5.08,0,0,0-.24,1.67,3.46,3.46,0,0,0,.86,2.61,3.26,3.26,0,0,0,2.29.8,3.55,3.55,0,0,0,1.13-.15,3.66,3.66,0,0,0,.8-.36Z"/><path class="cls-1" d="M179.52,130.79a5.87,5.87,0,0,1-.32,2,4.44,4.44,0,0,1-.89,1.51,3.81,3.81,0,0,1-1.4,1,5,5,0,0,1-1.85.33,4.9,4.9,0,0,1-1.84-.33,3.85,3.85,0,0,1-1.41-1,4.31,4.31,0,0,1-.9-1.51,5.87,5.87,0,0,1-.32-2,5.63,5.63,0,0,1,.33-2,4.33,4.33,0,0,1,.91-1.51,3.85,3.85,0,0,1,1.41-1,5.21,5.21,0,0,1,3.65,0,3.81,3.81,0,0,1,1.4,1,4.31,4.31,0,0,1,.9,1.51A5.63,5.63,0,0,1,179.52,130.79Zm-4.46-3.49a2.57,2.57,0,0,0-2.09.92,4.72,4.72,0,0,0,0,5.15,2.87,2.87,0,0,0,4.2,0,4,4,0,0,0,.75-2.57,3.92,3.92,0,0,0-.76-2.57A2.56,2.56,0,0,0,175.06,127.3Z"/><path class="cls-1" d="M183.52,135.28l-.3.09a1.88,1.88,0,0,1-.43,0c-.56,0-.84-.24-.84-.71v-6.65a1.33,1.33,0,0,1,.16-.71,1.78,1.78,0,0,1,.56-.52,5,5,0,0,1,1.38-.58,7.51,7.51,0,0,1,2-.24q1.56,0,1.56.78a1,1,0,0,1-.06.36,1.13,1.13,0,0,1-.15.29l-.51-.08a4.44,4.44,0,0,0-.63,0,5.87,5.87,0,0,0-1.59.19,4.67,4.67,0,0,0-1.13.44Z"/><path class="cls-1" d="M199.42,134.38a3,3,0,0,1-.92.47,4.3,4.3,0,0,1-1.38.19,5.45,5.45,0,0,1-1.63-.24,3.48,3.48,0,0,1-1.34-.78,3.88,3.88,0,0,1-.92-1.41,5.61,5.61,0,0,1-.34-2.09,5.33,5.33,0,0,1,.33-2,3.74,3.74,0,0,1,2.35-2.27,5.58,5.58,0,0,1,1.83-.28,5.73,5.73,0,0,1,1.65.22,4.84,4.84,0,0,1,1.27.56,2.27,2.27,0,0,1,.48.44,1,1,0,0,1,.18.6v7.88a3.78,3.78,0,0,1-.32,1.66,3,3,0,0,1-.9,1.1,3.93,3.93,0,0,1-1.36.61,7.05,7.05,0,0,1-1.69.2,6,6,0,0,1-1.7-.21,3.94,3.94,0,0,1-.95-.36,1,1,0,0,1-.59-.84.81.81,0,0,1,.46-.75,4.08,4.08,0,0,0,1.15.58,4.76,4.76,0,0,0,1.63.27,3.15,3.15,0,0,0,2-.56,2.18,2.18,0,0,0,.7-1.8Zm-2.12-.63a3,3,0,0,0,1.28-.24,3.61,3.61,0,0,0,.84-.56v-5.1a3.89,3.89,0,0,0-.84-.38,3.77,3.77,0,0,0-1.18-.17,2.88,2.88,0,0,0-2.13.8,3.29,3.29,0,0,0-.8,2.4,4.75,4.75,0,0,0,.22,1.5,2.66,2.66,0,0,0,.6,1,2.11,2.11,0,0,0,.9.56A3.4,3.4,0,0,0,197.3,133.75Z"/><path class="cls-1" d="M205.45,135.28a1.44,1.44,0,0,1-.29.09,2,2,0,0,1-.43,0c-.56,0-.84-.24-.84-.71v-6.65a1.33,1.33,0,0,1,.16-.71,1.78,1.78,0,0,1,.56-.52,5,5,0,0,1,1.38-.58,7.43,7.43,0,0,1,2-.24c1,0,1.57.26,1.57.78a1,1,0,0,1-.06.36,1.13,1.13,0,0,1-.15.29l-.51-.08a4.44,4.44,0,0,0-.63,0,5.87,5.87,0,0,0-1.59.19,4.76,4.76,0,0,0-1.14.44Z"/><path class="cls-1" d="M214.49,126a4.36,4.36,0,0,1,2.71.76,2.86,2.86,0,0,1,1,2.41v4.65a1.11,1.11,0,0,1-.17.66,1.66,1.66,0,0,1-.5.42,5.35,5.35,0,0,1-1.24.48,6.87,6.87,0,0,1-1.78.2,4.84,4.84,0,0,1-2.85-.72,2.44,2.44,0,0,1-1-2.1,2.33,2.33,0,0,1,.84-2,4.56,4.56,0,0,1,2.38-.81l2.78-.28v-.55a1.7,1.7,0,0,0-.59-1.43,2.55,2.55,0,0,0-1.59-.45,4.93,4.93,0,0,0-1.55.24,8.66,8.66,0,0,0-1.29.52,1.67,1.67,0,0,1-.28-.31.63.63,0,0,1-.13-.39.67.67,0,0,1,.14-.45,1.19,1.19,0,0,1,.43-.33,4.53,4.53,0,0,1,1.21-.43A7.78,7.78,0,0,1,214.49,126Zm0,8.29a4.77,4.77,0,0,0,1.37-.17,3.56,3.56,0,0,0,.77-.32V131l-2.43.25a3.1,3.1,0,0,0-1.51.46,1.24,1.24,0,0,0-.49,1.07,1.32,1.32,0,0,0,.57,1.15A3,3,0,0,0,214.51,134.3ZM216,121.85a1.11,1.11,0,0,1,.7.24.67.67,0,0,1,.26.5.86.86,0,0,1-.11.45,2.87,2.87,0,0,1-.4.42l-1.78,1.74a1,1,0,0,1-.63-.2.62.62,0,0,1-.23-.46.53.53,0,0,1,.09-.3l.2-.25Z"/><path class="cls-1" d="M222.65,126.77h3.88a1.62,1.62,0,0,1,.12.26,1,1,0,0,1,.06.37c0,.43-.21.64-.61.64h-3.43v7.24l-.3.09a1.88,1.88,0,0,1-.43,0c-.56,0-.84-.24-.84-.71v-9.25A3.07,3.07,0,0,1,222,123a3.94,3.94,0,0,1,2.6-.78,4.17,4.17,0,0,1,1.75.3c.43.19.64.44.64.72a1,1,0,0,1-.33.73,3.87,3.87,0,0,0-.88-.33,4.71,4.71,0,0,0-1-.12,2.25,2.25,0,0,0-1.67.49,2.22,2.22,0,0,0-.47,1.57Zm6.1-3.37a.94.94,0,0,1,.28-.7,1,1,0,0,1,.74-.28.94.94,0,0,1,.72.28,1,1,0,0,1,.28.7,1,1,0,0,1-.28.69,1,1,0,0,1-.72.29,1,1,0,0,1-.74-.29A.92.92,0,0,1,228.75,123.4Zm1.8,11.88a1.7,1.7,0,0,1-.29.09,2,2,0,0,1-.43,0c-.57,0-.85-.24-.85-.71V126.3a1.74,1.74,0,0,1,.31-.09,2,2,0,0,1,.44,0c.55,0,.82.25.82.73Z"/><path class="cls-1" d="M237.8,127.32a3.13,3.13,0,0,0-1.23.23,2.65,2.65,0,0,0-1,.66,3.15,3.15,0,0,0-.65,1.1,4.63,4.63,0,0,0-.23,1.5,3.64,3.64,0,0,0,.84,2.58,3,3,0,0,0,2.25.89,3.49,3.49,0,0,0,1.38-.23,6,6,0,0,0,1-.51,1,1,0,0,1,.35.29.69.69,0,0,1,.14.43.73.73,0,0,1-.22.51,1.76,1.76,0,0,1-.6.41,4.33,4.33,0,0,1-.9.29,6.31,6.31,0,0,1-3-.19,4.21,4.21,0,0,1-1.49-.88,4.08,4.08,0,0,1-1-1.48,5.87,5.87,0,0,1-.35-2.11,5.38,5.38,0,0,1,.37-2.09,4.53,4.53,0,0,1,1-1.5,4.09,4.09,0,0,1,1.48-.91,5.41,5.41,0,0,1,1.81-.3,5.66,5.66,0,0,1,1.13.1,3.55,3.55,0,0,1,.89.31,1.84,1.84,0,0,1,.58.44.76.76,0,0,1,.21.5.66.66,0,0,1-.14.41.85.85,0,0,1-.35.27,5.6,5.6,0,0,0-.94-.5A3.38,3.38,0,0,0,237.8,127.32Z"/><path class="cls-1" d="M251.16,130.79a5.87,5.87,0,0,1-.32,2,4.29,4.29,0,0,1-.89,1.51,3.73,3.73,0,0,1-1.4,1,4.9,4.9,0,0,1-1.84.33,5,5,0,0,1-1.85-.33,3.85,3.85,0,0,1-1.41-1,4.31,4.31,0,0,1-.9-1.51,5.88,5.88,0,0,1-.31-2,5.64,5.64,0,0,1,.32-2,4.48,4.48,0,0,1,.91-1.51,3.85,3.85,0,0,1,1.41-1,5.21,5.21,0,0,1,3.65,0,3.73,3.73,0,0,1,1.4,1,4.31,4.31,0,0,1,.9,1.51A5.63,5.63,0,0,1,251.16,130.79Zm-4.45-3.49a2.59,2.59,0,0,0-2.1.92,3.92,3.92,0,0,0-.77,2.57,4,4,0,0,0,.76,2.58,2.57,2.57,0,0,0,2.11.91,2.53,2.53,0,0,0,2.09-.92,4,4,0,0,0,.75-2.57,3.92,3.92,0,0,0-.76-2.57A2.54,2.54,0,0,0,246.71,127.3Z"/><path class="cls-1" d="M263.27,133.3c-.17-.31-.36-.71-.58-1.2s-.46-1-.7-1.62-.49-1.24-.74-1.92-.48-1.35-.7-2a1,1,0,0,1,.36-.32,1,1,0,0,1,.48-.12.8.8,0,0,1,.54.18,1.42,1.42,0,0,1,.36.59c.4,1.11.8,2.2,1.23,3.27s.9,2.2,1.44,3.38H265c.21-.41.42-.9.65-1.48s.44-1.2.65-1.86.42-1.31.61-2,.36-1.31.5-1.93l.29-.11a1.4,1.4,0,0,1,.38,0,.9.9,0,0,1,.55.17.6.6,0,0,1,.21.5,6.89,6.89,0,0,1-.27,1.43c-.19.7-.42,1.47-.72,2.34s-.63,1.74-1,2.65a22,22,0,0,1-1.16,2.42,16.87,16.87,0,0,1-1.65,2.56,2,2,0,0,1-1.36.89.94.94,0,0,1-.7-.23,1,1,0,0,1-.3-.55c.2-.18.44-.42.7-.7s.52-.6.79-.94.51-.67.74-1a7.81,7.81,0,0,0,.59-1,1.52,1.52,0,0,1-.62-.34A3.21,3.21,0,0,1,263.27,133.3Z"/><path class="cls-1" d="M276.82,131.07v4.21l-.31.09a2,2,0,0,1-.43,0c-.58,0-.87-.24-.87-.73V124.26a.69.69,0,0,1,.16-.48,1.08,1.08,0,0,1,.49-.26,6.66,6.66,0,0,1,1.38-.26c.55-.05,1.07-.08,1.58-.08a5.29,5.29,0,0,1,3.64,1,3.68,3.68,0,0,1,1.15,2.84,3.8,3.8,0,0,1-1.18,2.91,5.23,5.23,0,0,1-3.63,1.09Zm1.88-1.34a4,4,0,0,0,2.44-.65,2.34,2.34,0,0,0,.86-2,2.28,2.28,0,0,0-.84-2,4,4,0,0,0-2.38-.61c-.35,0-.7,0-1,0s-.65.08-.93.13v5Z"/><path class="cls-1" d="M287.23,135.28a1.44,1.44,0,0,1-.29.09,2,2,0,0,1-.43,0c-.57,0-.85-.24-.85-.71v-6.65a1.33,1.33,0,0,1,.17-.71,1.78,1.78,0,0,1,.56-.52,5,5,0,0,1,1.38-.58,7.43,7.43,0,0,1,2-.24c1.05,0,1.57.26,1.57.78a1,1,0,0,1-.06.36,1.13,1.13,0,0,1-.15.29l-.52-.08a4.21,4.21,0,0,0-.62,0,5.87,5.87,0,0,0-1.59.19,4.76,4.76,0,0,0-1.14.44Z"/><path class="cls-1" d="M301.37,130.79a5.87,5.87,0,0,1-.32,2,4.14,4.14,0,0,1-.89,1.51,3.73,3.73,0,0,1-1.4,1,4.9,4.9,0,0,1-1.84.33,5,5,0,0,1-1.85-.33,4,4,0,0,1-1.41-1,4.31,4.31,0,0,1-.9-1.51,6.38,6.38,0,0,1,0-4,4.48,4.48,0,0,1,.91-1.51,3.93,3.93,0,0,1,1.41-1,4.89,4.89,0,0,1,1.83-.33,4.83,4.83,0,0,1,1.82.33,3.73,3.73,0,0,1,1.4,1,4.48,4.48,0,0,1,.91,1.51A5.87,5.87,0,0,1,301.37,130.79Zm-4.45-3.49a2.59,2.59,0,0,0-2.1.92,3.92,3.92,0,0,0-.76,2.57,4,4,0,0,0,.75,2.58,2.88,2.88,0,0,0,4.21,0,4,4,0,0,0,.74-2.57,4,4,0,0,0-.75-2.57A2.57,2.57,0,0,0,296.92,127.3Z"/><path class="cls-1" d="M311.54,133.83a1,1,0,0,1-.16.61,2.19,2.19,0,0,1-.52.43,4.66,4.66,0,0,1-1.12.48,5.63,5.63,0,0,1-1.67.22,6.64,6.64,0,0,1-1.94-.27,4,4,0,0,1-1.52-.85,3.92,3.92,0,0,1-1-1.47,6,6,0,0,1-.34-2.15,6.21,6.21,0,0,1,.35-2.19,4.53,4.53,0,0,1,.95-1.5,3.62,3.62,0,0,1,1.42-.86,5.45,5.45,0,0,1,1.73-.27,5,5,0,0,1,1.22.15,4.82,4.82,0,0,1,1,.4v-4l.3-.08a1.51,1.51,0,0,1,.42,0c.56,0,.84.23.84.7ZM310,128a4.11,4.11,0,0,0-.91-.47,3.26,3.26,0,0,0-1.17-.2,3.34,3.34,0,0,0-1.15.19,2.33,2.33,0,0,0-.95.6,3.34,3.34,0,0,0-.66,1.11,5.08,5.08,0,0,0-.24,1.67,3.46,3.46,0,0,0,.86,2.61,3.26,3.26,0,0,0,2.29.8,3.55,3.55,0,0,0,1.13-.15,3.66,3.66,0,0,0,.8-.36Z"/><path class="cls-1" d="M314.52,126.3a1.74,1.74,0,0,1,.31-.09,2,2,0,0,1,.44,0c.55,0,.82.25.82.73v5a2.18,2.18,0,0,0,.67,1.81,2.84,2.84,0,0,0,1.84.54,4.56,4.56,0,0,0,2.2-.51V126.3a1.59,1.59,0,0,1,.3-.09,2,2,0,0,1,.42,0c.57,0,.85.25.85.73v6.82a1.67,1.67,0,0,1-.11.66,1.23,1.23,0,0,1-.52.48,6.37,6.37,0,0,1-1.25.49,6.66,6.66,0,0,1-1.91.23,4.61,4.61,0,0,1-3-.86,3.28,3.28,0,0,1-1.05-2.7Z"/><path class="cls-1" d="M329.5,127.32a3.13,3.13,0,0,0-1.23.23,2.65,2.65,0,0,0-1,.66,3.15,3.15,0,0,0-.65,1.1,4.38,4.38,0,0,0-.23,1.5,3.64,3.64,0,0,0,.84,2.58,3,3,0,0,0,2.25.89,3.49,3.49,0,0,0,1.38-.23,6,6,0,0,0,1-.51,1,1,0,0,1,.35.29.69.69,0,0,1,.14.43.78.78,0,0,1-.22.51,1.76,1.76,0,0,1-.6.41,4.33,4.33,0,0,1-.9.29,6.31,6.31,0,0,1-3-.19,4.21,4.21,0,0,1-1.49-.88,4.08,4.08,0,0,1-1-1.48,5.66,5.66,0,0,1-.35-2.11,5.38,5.38,0,0,1,.37-2.09,4.53,4.53,0,0,1,1-1.5,4.09,4.09,0,0,1,1.48-.91,5.41,5.41,0,0,1,1.81-.3,5.73,5.73,0,0,1,1.13.1,3.7,3.7,0,0,1,.89.31,2,2,0,0,1,.58.44.76.76,0,0,1,.21.5.66.66,0,0,1-.14.41.85.85,0,0,1-.35.27,5.6,5.6,0,0,0-.94-.5A3.38,3.38,0,0,0,329.5,127.32Z"/><path class="cls-1" d="M337.78,135.57a3.79,3.79,0,0,1-2.23-.6,2.31,2.31,0,0,1-.85-2v-9.32l.3-.08a1.61,1.61,0,0,1,.44,0c.55,0,.83.23.83.7v2.26h3.21a1.29,1.29,0,0,1,.12.26,1,1,0,0,1,.06.36c0,.45-.2.67-.59.67h-2.8v5.1a1.28,1.28,0,0,0,.44,1.11,2.1,2.1,0,0,0,1.24.32,2.71,2.71,0,0,0,.75-.12,3.43,3.43,0,0,0,.68-.27,1.38,1.38,0,0,1,.22.29.79.79,0,0,1-.41,1.12A3,3,0,0,1,337.78,135.57Z"/><path class="cls-1" d="M350.09,130.79a5.88,5.88,0,0,1-.31,2,4.31,4.31,0,0,1-.9,1.51,3.73,3.73,0,0,1-1.4,1,5.29,5.29,0,0,1-3.68,0,4,4,0,0,1-1.42-1,4.31,4.31,0,0,1-.9-1.51,6.38,6.38,0,0,1,0-4,4.48,4.48,0,0,1,.91-1.51,4,4,0,0,1,1.42-1,5.18,5.18,0,0,1,3.64,0,3.73,3.73,0,0,1,1.4,1,4.48,4.48,0,0,1,.91,1.51A5.87,5.87,0,0,1,350.09,130.79Zm-4.45-3.49a2.59,2.59,0,0,0-2.1.92,3.92,3.92,0,0,0-.76,2.57,4,4,0,0,0,.75,2.58,2.88,2.88,0,0,0,4.21,0,4,4,0,0,0,.74-2.57,4,4,0,0,0-.75-2.57A2.57,2.57,0,0,0,345.64,127.3Z"/><path class="cls-1" d="M354.09,135.28a1.7,1.7,0,0,1-.29.09,2,2,0,0,1-.44,0c-.56,0-.84-.24-.84-.71v-6.65a1.33,1.33,0,0,1,.17-.71,1.78,1.78,0,0,1,.56-.52,5,5,0,0,1,1.38-.58,7.43,7.43,0,0,1,2-.24c1,0,1.57.26,1.57.78a1,1,0,0,1-.06.36.9.9,0,0,1-.16.29l-.51-.08a4.3,4.3,0,0,0-.62,0,5.77,5.77,0,0,0-1.59.19,4.76,4.76,0,0,0-1.14.44Z"/><path class="cls-1" d="M371,132.22a1.21,1.21,0,0,1-.36.18,1.61,1.61,0,0,1-1.06,0,.6.6,0,0,1-.34-.32q-1.07-2.19-1.83-4c-.51-1.21-.92-2.22-1.23-3h-.08c0,1-.08,1.89-.13,2.73s-.09,1.67-.15,2.47l-.15,2.44c-.05.83-.11,1.71-.16,2.65l-.3.08a2.59,2.59,0,0,1-.41,0,.81.81,0,0,1-.6-.18.69.69,0,0,1-.18-.51q0-.19,0-.84c0-.43,0-1,.09-1.57s.08-1.29.13-2,.09-1.5.15-2.27.12-1.53.18-2.28.11-1.42.17-2a1.53,1.53,0,0,1,.45-.25,1.73,1.73,0,0,1,.66-.12,1.28,1.28,0,0,1,1.26.73c.25.51.5,1,.75,1.61s.51,1.15.77,1.74l.74,1.74c.24.58.48,1.13.7,1.65h.08c.28-.69.57-1.38.86-2.05l.84-1.95c.28-.63.54-1.22.79-1.76s.47-1.06.66-1.51a1.32,1.32,0,0,1,.45-.15,3.36,3.36,0,0,1,.51,0c.62,0,1,.21,1.06.63a11.73,11.73,0,0,1,.18,1.16c.06.55.13,1.17.2,1.88s.12,1.46.18,2.27.12,1.59.17,2.34.1,1.45.14,2.08.07,1.14.09,1.5a1.41,1.41,0,0,1-.82.24.91.91,0,0,1-.52-.15.67.67,0,0,1-.26-.54c-.07-.95-.13-1.9-.18-2.84s-.1-1.84-.15-2.69-.09-1.63-.12-2.34-.08-1.32-.1-1.81h-.08l-.5,1.23c-.19.46-.41,1-.67,1.55s-.54,1.22-.85,2S371.38,131.33,371,132.22Z"/><path class="cls-1" d="M379.17,126.3a1.38,1.38,0,0,1,.3-.09,2,2,0,0,1,.44,0c.55,0,.82.25.82.73v5a2.21,2.21,0,0,0,.67,1.81,2.87,2.87,0,0,0,1.85.54,4.56,4.56,0,0,0,2.19-.51V126.3l.3-.09a2,2,0,0,1,.43,0c.56,0,.84.25.84.73v6.82a1.67,1.67,0,0,1-.11.66,1.17,1.17,0,0,1-.52.48,6.25,6.25,0,0,1-1.24.49,6.7,6.7,0,0,1-1.91.23,4.58,4.58,0,0,1-3-.86,3.28,3.28,0,0,1-1.05-2.7Z"/><path class="cls-1" d="M391.38,135.37a1.88,1.88,0,0,1-.43,0c-.56,0-.84-.24-.84-.71v-12.1l.3-.08a1.51,1.51,0,0,1,.42,0c.56,0,.84.23.84.7v12.1A1.44,1.44,0,0,1,391.38,135.37Z"/><path class="cls-1" d="M397.87,135.57a3.76,3.76,0,0,1-2.22-.6,2.32,2.32,0,0,1-.86-2v-9.32l.31-.08a1.52,1.52,0,0,1,.44,0c.55,0,.82.23.82.7v2.26h3.22a2.54,2.54,0,0,1,.11.26,1,1,0,0,1,.06.36c0,.45-.19.67-.59.67h-2.8v5.1a1.31,1.31,0,0,0,.44,1.11,2.14,2.14,0,0,0,1.25.32,2.64,2.64,0,0,0,.74-.12,3.55,3.55,0,0,0,.69-.27,1.08,1.08,0,0,1,.21.29.79.79,0,0,1-.41,1.12A3,3,0,0,1,397.87,135.57Z"/><path class="cls-1" d="M401.93,123.4a.94.94,0,0,1,.28-.7,1,1,0,0,1,.74-.28,1,1,0,0,1,1,1,.92.92,0,0,1-.28.69,1,1,0,0,1-.72.29,1,1,0,0,1-.74-.29A.92.92,0,0,1,401.93,123.4Zm1.8,11.88a1.44,1.44,0,0,1-.29.09,2,2,0,0,1-.43,0c-.57,0-.85-.24-.85-.71V126.3a1.74,1.74,0,0,1,.31-.09,2,2,0,0,1,.44,0c.55,0,.82.25.82.73Z"/><path class="cls-1" d="M417.73,127.75a2.26,2.26,0,0,0-1.47-.45,3.28,3.28,0,0,0-2.27.9,3.3,3.3,0,0,1,.11.85v6.23a1.38,1.38,0,0,1-.3.09,2,2,0,0,1-.42,0c-.56,0-.85-.24-.85-.71v-5.55a1.73,1.73,0,0,0-.54-1.41,2.3,2.3,0,0,0-1.49-.45,3.58,3.58,0,0,0-1.19.2,4.43,4.43,0,0,0-.95.45v7.33l-.3.09a1.88,1.88,0,0,1-.43,0c-.56,0-.84-.24-.84-.71V128a1.22,1.22,0,0,1,.17-.66,1.8,1.8,0,0,1,.58-.54,5.44,5.44,0,0,1,1.34-.58,5.76,5.76,0,0,1,1.64-.24,4.74,4.74,0,0,1,1.7.28,2.57,2.57,0,0,1,1.14.78,4,4,0,0,1,1.27-.76,4.75,4.75,0,0,1,1.75-.3,4,4,0,0,1,2.53.75,2.82,2.82,0,0,1,.94,2.32v6.2a1.74,1.74,0,0,1-.31.09,1.86,1.86,0,0,1-.42,0c-.56,0-.84-.24-.84-.71v-5.55A1.71,1.71,0,0,0,417.73,127.75Z"/><path class="cls-1" d="M423.91,131.71a3,3,0,0,0,3.37,2.57,4,4,0,0,0,1.49-.27,4.65,4.65,0,0,0,1.06-.59.83.83,0,0,1,.47.74.73.73,0,0,1-.25.53,2.12,2.12,0,0,1-.66.45,4.7,4.7,0,0,1-1,.32,5.86,5.86,0,0,1-1.21.11,5.09,5.09,0,0,1-3.6-1.23,4.71,4.71,0,0,1-1.32-3.61,5.85,5.85,0,0,1,.32-2,4.34,4.34,0,0,1,.91-1.48,3.91,3.91,0,0,1,1.38-.93,4.49,4.49,0,0,1,1.74-.32,4.33,4.33,0,0,1,1.63.29,3.73,3.73,0,0,1,1.28.83,4,4,0,0,1,.85,1.28,4.25,4.25,0,0,1,.3,1.62.81.81,0,0,1-.2.61.9.9,0,0,1-.54.23Zm2.7-4.43a2.63,2.63,0,0,0-2,.83,3.48,3.48,0,0,0-.82,2.39l5.39-.75a2.87,2.87,0,0,0-.75-1.77A2.39,2.39,0,0,0,426.61,127.28Z"/><path class="cls-1" d="M440.71,133.83a1,1,0,0,1-.17.61,2,2,0,0,1-.52.43,4.57,4.57,0,0,1-1.11.48,5.68,5.68,0,0,1-1.67.22,6.59,6.59,0,0,1-1.94-.27,4,4,0,0,1-1.52-.85,3.8,3.8,0,0,1-1-1.47,6.81,6.81,0,0,1,0-4.34,4.24,4.24,0,0,1,.95-1.5,3.65,3.65,0,0,1,1.41-.86,5.47,5.47,0,0,1,1.74-.27,4.89,4.89,0,0,1,1.21.15,4.82,4.82,0,0,1,1,.4v-4l.3-.08a1.54,1.54,0,0,1,.43,0c.56,0,.84.23.84.7ZM439.14,128a3.82,3.82,0,0,0-.9-.47,3.28,3.28,0,0,0-1.18-.2,3.38,3.38,0,0,0-1.15.19,2.47,2.47,0,0,0-1,.6,3.16,3.16,0,0,0-.65,1.11,4.82,4.82,0,0,0-.25,1.67,3.46,3.46,0,0,0,.86,2.61,3.27,3.27,0,0,0,2.3.8,3.41,3.41,0,0,0,1.92-.51Z"/><path class="cls-1" d="M443.55,123.4a1,1,0,0,1,.29-.7,1,1,0,0,1,.73-.28.94.94,0,0,1,1,1,1,1,0,0,1-.27.69,1,1,0,0,1-.73.29,1,1,0,0,1-.73-.29A.93.93,0,0,1,443.55,123.4Zm1.81,11.88-.3.09a1.88,1.88,0,0,1-.43,0c-.56,0-.84-.24-.84-.71V126.3a1.38,1.38,0,0,1,.3-.09,2.12,2.12,0,0,1,.44,0c.55,0,.83.25.83.73Z"/><path class="cls-1" d="M451.63,126a4.31,4.31,0,0,1,2.7.76,2.83,2.83,0,0,1,1,2.41v4.65a1.11,1.11,0,0,1-.16.66,1.66,1.66,0,0,1-.5.42,5.45,5.45,0,0,1-1.25.48,6.79,6.79,0,0,1-1.77.2,4.84,4.84,0,0,1-2.85-.72,2.41,2.41,0,0,1-1-2.1,2.33,2.33,0,0,1,.84-2A4.49,4.49,0,0,1,451,130l2.79-.28v-.55a1.7,1.7,0,0,0-.59-1.43,2.55,2.55,0,0,0-1.59-.45,4.89,4.89,0,0,0-1.55.24,8.66,8.66,0,0,0-1.29.52,1.72,1.72,0,0,1-.29-.31.69.69,0,0,1-.12-.39.73.73,0,0,1,.13-.45,1.28,1.28,0,0,1,.43-.33,4.74,4.74,0,0,1,1.22-.43A7.7,7.7,0,0,1,451.63,126Zm0,8.29a4.7,4.7,0,0,0,1.36-.17,3.47,3.47,0,0,0,.78-.32V131l-2.44.25a3.13,3.13,0,0,0-1.51.46,1.26,1.26,0,0,0-.49,1.07,1.32,1.32,0,0,0,.57,1.15A3,3,0,0,0,451.65,134.3Z"/></g></g></svg>