<svg xmlns="http://www.w3.org/2000/svg" viewBox="0 0 408.37 65.37"><defs><style>.cls-1{fill:#026581;}</style></defs><g id="Capa_2" data-name="Capa 2"><g id="Capa_1-2" data-name="Capa 1"><path class="cls-1" d="M0,1.26C0,1,.1.82.37.82H19.1C34.44,1.09,42,10.9,42,20.36,42,30,34.44,39.27,18.74,40H15.61c-2.23,0-2.23-.09-2.23,2.32V64.24c0,.27-.09.36-.36.36H6.42A6.47,6.47,0,0,1,0,58.08Zm13.37,33.9c0,2.41.09,2.41,2.23,2.32,8.57-.44,12.85-9.54,12.85-17.12S24,3.14,15,3.14c-1.7,0-1.61,0-1.61,1.69Z"/><path class="cls-1" d="M45.75.83c0-.27.09-.36.36-.36H64.66C80.63.47,88,9.4,88,18c0,6.15-3.66,12.58-11.15,16.14,6.86,4.37,12.75,22.22,13.46,30.07a.42.42,0,0,1-.45.44H80.17a6.33,6.33,0,0,1-6.24-5.53c-1.43-8.74-5.44-21.59-10.88-23.46a3.18,3.18,0,0,1-.54-.09c-.09,0-.09,0-.18-.09h-.89c-2.23,0-2.23.09-2.23,2.32V64.25c0,.27-.09.36-.36.36H52.16a6.48,6.48,0,0,1-6.42-6.52ZM59.21,30.71c0,2.23.09,2.41,2.23,2.32,8.21-.45,12.76-7.76,12.76-15C74.2,11.18,70,2.79,60.82,2.79c-1.69,0-1.6-.09-1.6,1.61Z"/><path class="cls-1" d="M147.19,33.13c0,17.13-9.64,32.2-27.48,32.2C101.16,65.33,91.44,49,91.44,33,91.44,15.73,101.88.92,119.63.93,138.54.93,147.19,17.7,147.19,33.13ZM119.71,62.3c11.06,0,13.21-21.67,13.21-29.53,0-14.27-4.19-29.61-13.2-29.61s-13.2,15.34-13.21,29.61C106.51,46.86,110.7,62.3,119.71,62.3Z"/><path class="cls-1" d="M146.55.58h9.72a6.6,6.6,0,0,1,6,4l11.59,27.12a.28.28,0,0,0,.18.09c.09,0,.18,0,.18-.09l12-30.77c.09-.27.26-.36.62-.36h1.7a.48.48,0,0,1,.44.27.42.42,0,0,1,.09.54L175.45,36.53c-.09,0-.09,0-.09.09V64.36c0,.45-.18.63-.53.63H168a6.81,6.81,0,0,1-6.6-6.79V36.8L146,1.38a.57.57,0,0,1,0-.54A.54.54,0,0,1,146.55.58Z"/><path class="cls-1" d="M229.78.59a.68.68,0,0,1,.36.18.68.68,0,0,1,.18.36V2.56c0,.44-.18.62-.54.62H207c-.17,0-.26.08-.26.17V28.42c0,.09.09.18.27.18h14.72c.36,0,.53.18.53.63v1.69a.47.47,0,0,1-.53.54H207a.24.24,0,0,0-.27.27V62.14c0,.09.09.18.26.18h22.75c.36,0,.54.18.54.63v1.42c0,.45-.18.63-.54.63H199.53a6.74,6.74,0,0,1-6.6-6.78V1.12c0-.36.18-.53.63-.53Z"/><path class="cls-1" d="M268.05,8.36a7.92,7.92,0,0,1,.17,7.94l-.08.09a7.13,7.13,0,0,1-5.89,3.48,6.29,6.29,0,0,1-5.62-3.21,6.33,6.33,0,0,1-.8-5.63,7,7,0,0,1,6.6-4.9c.09,0,.18,0,.18-.09s0-.27-.09-.27A14.05,14.05,0,0,0,254.58,3c-11.42,0-13.74,20.24-13.74,28.72,0,13.56,3.83,28.63,10.16,30.51,4.1,1.16,8.56-2.68,13.47-11.69a.61.61,0,0,1,.72-.26.56.56,0,0,1,.44.53V62a.57.57,0,0,1-.45.54,40,40,0,0,1-12,2.31c-17.22,0-26.76-16.15-26.76-32.65C226.48,17.1,235,1,253.24,1,261.09,1,266.08,4.7,268.05,8.36Z"/><path class="cls-1" d="M262.88.87c0-.45.18-.63.62-.63h48.26c.45,0,.63.18.63.63V2.57c0,.45-.18.63-.63.63h-17a.19.19,0,0,0-.17.18V64.3c0,.35-.18.53-.63.53h-6.6a6.66,6.66,0,0,1-6.6-6.69V3.37a.19.19,0,0,0-.18-.18h-17c-.44,0-.62-.18-.62-.63Z"/><path class="cls-1" d="M358.05,33.18c0,17.12-9.64,32.2-27.48,32.19-18.56,0-28.28-16.32-28.27-32.29C302.3,15.77,312.74,1,330.49,1,349.4,1,358.05,17.75,358.05,33.18ZM330.57,62.34c11.06,0,13.21-21.67,13.21-29.52,0-14.28-4.19-29.62-13.2-29.62s-13.2,15.34-13.21,29.61C317.37,46.91,321.56,62.34,330.57,62.34Z"/><path class="cls-1" d="M365.2,49.42c0-.36.18-.54.44-.54a.57.57,0,0,1,.72.36c4.81,11.24,11.77,13.11,16.23,13.11,5.62,0,12.76-3.74,12.76-10.25,0-5.62-6-9.46-12.13-13.74-7.85-5-16.5-11.16-16.5-21.5C366.72,5.08,378.41,0,388.22,0a20.38,20.38,0,0,1,11.42,3.48c4,3.21,5.44,8,3.3,11.6l-.09.18a8.42,8.42,0,0,1-3,2.67,8.65,8.65,0,0,1-2.94.72,6.77,6.77,0,0,1-5.62-3.22,6.84,6.84,0,0,1-.8-5.62A7.09,7.09,0,0,1,395,5.26c.09,0,.09,0,.09-.09s0-.09.09-.17V4.91c-.09-.09-.09-.09-.18-.09a13.84,13.84,0,0,0-6.42-1.7c-6.07,0-9.37,4.73-9.37,10.53,0,6,6,9.45,12.39,13.74,7.85,5,16.77,10.61,16.77,21.32,0,11.42-12.13,16.5-24.18,16.5-8.74,0-15.07-4.11-18.9-12.23a.33.33,0,0,1-.09-.27Z"/></g></g></svg>