<svg xmlns="http://www.w3.org/2000/svg" viewBox="0 0 362.81 78.55"><defs><style>.cls-1{fill:#026581;}</style></defs><g id="Capa_2" data-name="Capa 2"><g id="Capa_1-2" data-name="Capa 1"><path class="cls-1" d="M0,62.57c0-.36.18-.53.45-.53a.57.57,0,0,1,.71.35C6,73.63,12.93,75.51,17.39,75.51c5.62,0,12.76-3.75,12.76-10.26,0-5.62-6-9.45-12.13-13.74-7.85-5-16.5-11.15-16.5-21.5,0-11.77,11.69-16.85,21.5-16.85a20.38,20.38,0,0,1,11.42,3.48c4,3.21,5.44,8,3.3,11.59l-.09.18a8.43,8.43,0,0,1-2.94,2.68,8.64,8.64,0,0,1-2.95.71,6.76,6.76,0,0,1-5.62-3.21,6.88,6.88,0,0,1-.8-5.62,7.07,7.07,0,0,1,4.46-4.55c.09,0,.09,0,.09-.09s0-.09.09-.18v-.09c-.09-.09-.09-.09-.18-.09a13.94,13.94,0,0,0-6.42-1.69C17.31,16.28,14,21,14,26.8c0,6,6,9.46,12.4,13.74,7.85,5,16.77,10.62,16.76,21.33C43.17,73.28,31,78.37,19,78.36c-8.74,0-15.08-4.1-18.91-12.22A.33.33,0,0,1,0,65.87Z"/><path class="cls-1" d="M104,46.35c0,17.13-9.64,32.2-27.48,32.2-18.55,0-28.27-16.33-28.27-32.3,0-17.3,10.44-32.11,28.19-32.1C95.38,14.15,104,30.92,104,46.35ZM76.54,75.52C87.6,75.52,89.75,53.84,89.75,46c0-14.27-4.19-29.61-13.2-29.61S63.35,31.72,63.35,46C63.34,60.08,67.53,75.52,76.54,75.52Z"/><path class="cls-1" d="M128.19,13.88q11.91.4,19,5.36c4,2.77,6.24,6.6,6.24,10.62,0,5.71-4,10.34-10.88,13.2l-.54.26a1.83,1.83,0,0,0,.45.09l.09.09c10.08,3.13,16,9.1,16,16.24,0,8.83-10.08,18.29-31.94,18.28h-8.92a6.66,6.66,0,0,1-6.6-6.69V14.51c0-.45.18-.63.63-.63Zm-1.35,61.64a16.43,16.43,0,0,0,15.62-15.87c0-6.07-4.91-14.63-15.61-14.63-.63,0-.89,0-1,.09s-.09.44-.09,1.07V74.54c0,.63,0,.89.09,1S126.31,75.61,126.84,75.52Zm-1.06-34.16c0,.62,0,1,.09,1.07s.44.09,1,0c8.2-.45,11.86-7.67,11.86-12.67,0-5.26-3.74-13.2-11.86-13.2a1.81,1.81,0,0,0-1,.18c-.09.09-.09.36-.09.89Z"/><path class="cls-1" d="M165.76,14.07c0-.27.09-.36.35-.36h18.56c16,0,23.37,8.93,23.37,17.49,0,6.16-3.66,12.58-11.16,16.15,6.87,4.37,12.76,22.21,13.47,30.06a.43.43,0,0,1-.45.45h-9.72a6.33,6.33,0,0,1-6.24-5.53c-1.43-8.74-5.44-21.59-10.88-23.46a3.18,3.18,0,0,1-.54-.09c-.09,0-.09,0-.18-.09h-.89c-2.23,0-2.23.09-2.23,2.32V77.49c0,.27-.09.36-.36.36h-6.69a6.47,6.47,0,0,1-6.42-6.51ZM179.22,44c0,2.23.09,2.41,2.23,2.32,8.21-.44,12.76-7.76,12.76-15C194.21,24.42,190,16,180.83,16c-1.69,0-1.6-.09-1.6,1.61Z"/><path class="cls-1" d="M251.22,13.81a.68.68,0,0,1,.36.18.66.66,0,0,1,.17.36v1.43c0,.44-.17.62-.53.62H228.47c-.18,0-.26.09-.26.17V41.64c0,.09.09.18.27.18h14.72c.35,0,.53.18.53.63v1.69a.47.47,0,0,1-.53.54H228.47a.24.24,0,0,0-.27.27V75.36c0,.09.08.18.26.18h22.75c.36,0,.53.18.53.63v1.42c0,.45-.17.63-.53.63H221a6.74,6.74,0,0,1-6.6-6.78V14.34c0-.35.18-.53.62-.53Z"/><path class="cls-1" d="M282.71,14.44c0-.36.18-.53.63-.53h8.12a6.45,6.45,0,0,1,6,3.83c3.3,7.41,10.52,23.29,15.25,34l.09.09h.09c.09,0,.09,0,.18-.09l2-5,13-32.47a.67.67,0,0,1,.62-.36h3.93a6.67,6.67,0,0,1,6.6,6.7V77.52a.47.47,0,0,1-.54.53h-6.51a6.66,6.66,0,0,1-6.6-6.69V29.26a.19.19,0,0,0-.18-.18h-.09c-.09,0-.09,0-.09.09l-.71,1.69c-3.13,7.85-7.95,19.27-10.09,24.8v.18l1.79,3.92a.8.8,0,0,1,0,.63.56.56,0,0,1-.54.26h-8.92a6.64,6.64,0,0,1-6-3.83L285.92,24.7a.31.31,0,0,0-.26-.09.19.19,0,0,0-.18.18V77.51a.47.47,0,0,1-.54.53h-1.6c-.45,0-.63-.18-.63-.53Z"/><path class="cls-1" d="M346.39,14.36c0-.36.18-.53.63-.53h6.69a6.61,6.61,0,0,1,6.6,6.69V77.61c0,.44-.18.62-.63.62H353a6.74,6.74,0,0,1-6.6-6.78ZM362.81,0,350.67,9.37h-3.39l5-9.37Z"/></g></g></svg>